<?xml version="1.0" encoding="UTF-8" standalone="no"?>
<svg
   xmlns:dc="http://purl.org/dc/elements/1.1/"
   xmlns:cc="http://creativecommons.org/ns#"
   xmlns:rdf="http://www.w3.org/1999/02/22-rdf-syntax-ns#"
   xmlns:svg="http://www.w3.org/2000/svg"
   xmlns="http://www.w3.org/2000/svg"
   xmlns:sodipodi="http://sodipodi.sourceforge.net/DTD/sodipodi-0.dtd"
   xmlns:inkscape="http://www.inkscape.org/namespaces/inkscape"
   width="200mm"
   height="200mm"
   version="1.1"
   viewBox="0 0 200 200"
   id="svg66"
   sodipodi:docname="egg.svg"
   inkscape:version="0.92.1 r">
  <sodipodi:namedview
     pagecolor="#ffffff"
     bordercolor="#666666"
     borderopacity="1"
     objecttolerance="10"
     gridtolerance="10"
     guidetolerance="10"
     inkscape:pageopacity="0"
     inkscape:pageshadow="2"
     inkscape:window-width="1920"
     inkscape:window-height="1025"
     id="namedview68"
     showgrid="false"
     inkscape:zoom="0.15610417"
     inkscape:cx="-430.79374"
     inkscape:cy="930.85608"
     inkscape:window-x="0"
     inkscape:window-y="27"
     inkscape:window-maximized="1"
     inkscape:current-layer="svg66" />
  <defs
     id="defs32">
    <mask
       id="c"
       maskUnits="userSpaceOnUse">
      <path
         d="m100.23 108.45a72.571 87.69 0 0 0 -72.571 87.691 72.571 87.69 0 0 0 72.571 87.69 72.571 87.69 0 0 0 72.571 -87.69 72.571 87.69 0 0 0 -72.571 -87.691z"
         fill="#fca"
         id="path2" />
    </mask>
    <mask
       id="b"
       maskUnits="userSpaceOnUse">
      <path
         d="m100.23 108.45a72.571 87.69 0 0 0 -72.571 87.691 72.571 87.69 0 0 0 72.571 87.69 72.571 87.69 0 0 0 72.571 -87.69 72.571 87.69 0 0 0 -72.571 -87.691z"
         fill="#fca"
         id="path5" />
    </mask>
    <mask
       id="a"
       maskUnits="userSpaceOnUse">
      <path
         d="m100.23 108.45a72.571 87.69 0 0 0 -72.571 87.691 72.571 87.69 0 0 0 72.571 87.69 72.571 87.69 0 0 0 72.571 -87.69 72.571 87.69 0 0 0 -72.571 -87.691z"
         fill="#fca"
         id="path8" />
    </mask>
    <mask
       id="j"
       maskUnits="userSpaceOnUse">
      <path
         d="m100.23 108.45a72.571 87.69 0 0 0 -72.571 87.691 72.571 87.69 0 0 0 72.571 87.69 72.571 87.69 0 0 0 72.571 -87.69 72.571 87.69 0 0 0 -72.571 -87.691z"
         fill="#fca"
         id="path11" />
    </mask>
    <mask
       id="i"
       maskUnits="userSpaceOnUse">
      <path
         d="m100.23 108.45a72.571 87.69 0 0 0 -72.571 87.691 72.571 87.69 0 0 0 72.571 87.69 72.571 87.69 0 0 0 72.571 -87.69 72.571 87.69 0 0 0 -72.571 -87.691z"
         fill="#fca"
         id="path14" />
    </mask>
    <mask
       id="h"
       maskUnits="userSpaceOnUse">
      <path
         d="m100.23 108.45a72.571 87.69 0 0 0 -72.571 87.691 72.571 87.69 0 0 0 72.571 87.69 72.571 87.69 0 0 0 72.571 -87.69 72.571 87.69 0 0 0 -72.571 -87.691z"
         fill="#fca"
         id="path17" />
    </mask>
    <mask
       id="g"
       maskUnits="userSpaceOnUse">
      <path
         d="m100.23 108.45a72.571 87.69 0 0 0 -72.571 87.691 72.571 87.69 0 0 0 72.571 87.69 72.571 87.69 0 0 0 72.571 -87.69 72.571 87.69 0 0 0 -72.571 -87.691z"
         fill="#fca"
         id="path20" />
    </mask>
    <mask
       id="f"
       maskUnits="userSpaceOnUse">
      <path
         d="m100.23 108.45a72.571 87.69 0 0 0 -72.571 87.691 72.571 87.69 0 0 0 72.571 87.69 72.571 87.69 0 0 0 72.571 -87.69 72.571 87.69 0 0 0 -72.571 -87.691z"
         fill="#fca"
         id="path23" />
    </mask>
    <mask
       id="e"
       maskUnits="userSpaceOnUse">
      <path
         d="m100.23 108.45a72.571 87.69 0 0 0 -72.571 87.691 72.571 87.69 0 0 0 72.571 87.69 72.571 87.69 0 0 0 72.571 -87.69 72.571 87.69 0 0 0 -72.571 -87.691z"
         fill="#fca"
         id="path26" />
    </mask>
    <mask
       id="d"
       maskUnits="userSpaceOnUse">
      <path
         d="m100.23 108.45a72.571 87.69 0 0 0 -72.571 87.691 72.571 87.69 0 0 0 72.571 87.69 72.571 87.69 0 0 0 72.571 -87.69 72.571 87.69 0 0 0 -72.571 -87.691z"
         fill="#fca"
         id="path29" />
    </mask>
  </defs>
  <metadata
     id="metadata34">
    <rdf:RDF>
      <cc:Work
         rdf:about="">
        <dc:format>image/svg+xml</dc:format>
        <dc:type
           rdf:resource="http://purl.org/dc/dcmitype/StillImage" />
        <dc:title />
      </cc:Work>
    </rdf:RDF>
  </metadata>
  <g
     id="g4576"
     transform="translate(-0.84745606)">
    <path
       style="fill:#fdcaa9;stroke-width:0.26458332"
       d="m 98.015622,187.53925 c -2.231585,-0.21466 -7.769134,-1.16609 -9.78985,-1.68202 -8.608557,-2.19796 -18.000249,-6.97133 -25.399731,-12.90953 -3.076998,-2.46934 -9.546277,-8.9277 -11.987717,-11.96748 -8.63972,-10.75713 -15.292551,-25.48087 -18.288386,-40.475 -1.563042,-7.82302 -1.861789,-11.10512 -1.866445,-20.50521 -0.0055,-11.008434 0.422273,-14.877013 2.662067,-24.077086 4.937925,-20.282795 14.737115,-36.621551 29.107024,-48.53182 9.4464,-7.829498 20.567694,-12.786272 32.784913,-14.612275 3.557233,-0.531669 13.010173,-0.454461 16.668753,0.136144 6.797,1.097242 12.50442,2.899572 18.52083,5.848637 17.10411,8.383931 30.78029,24.143637 38.67683,44.569121 1.85964,4.810236 3.60836,10.93855 5.25359,18.411026 1.46908,6.672392 2.06067,20.503933 1.16562,27.252083 -1.87043,14.10183 -3.71894,21.41661 -7.95662,31.48542 -3.76166,8.93775 -6.31534,13.2148 -12.26859,20.54811 -11.71081,14.42558 -26.77923,23.48832 -43.25937,26.01792 -2.69698,0.41397 -11.59023,0.72597 -14.022918,0.49196 z"
       id="path4580"
       inkscape:connector-curvature="0" />
    <path
       style="fill:#e69c95;stroke-width:0.26458332"
       d="m 110.58333,166.4821 c -0.43656,-0.15588 -1.39379,-0.66476 -2.12716,-1.13085 -0.73338,-0.46609 -1.80494,-1.00227 -2.38125,-1.19152 -1.64075,-0.53878 -2.9861,-1.50523 -3.90615,-2.80602 -1.15861,-1.63806 -1.46366,-2.58664 -1.48719,-4.62446 -0.0341,-2.95805 1.50442,-5.43066 4.31468,-6.93408 0.9266,-0.4957 1.50378,-0.58186 3.86728,-0.57731 3.30599,0.006 4.41987,0.42931 7.81316,2.96659 3.04775,2.27891 4.09309,4.05191 4.09309,6.94228 0,0.82549 -0.19959,2.08663 -0.44352,2.80254 -0.59574,1.74841 -2.6861,3.83877 -4.43451,4.43451 -1.4489,0.49369 -4.09217,0.55261 -5.30843,0.11832 z m -26.590624,-2.50503 c -0.218281,-0.0784 -1.11125,-0.50497 -1.984375,-0.94783 -0.873125,-0.44286 -2.198753,-0.89292 -2.945844,-1.00012 -1.86835,-0.26811 -3.18879,-0.94517 -4.616688,-2.36724 -2.745266,-2.73404 -2.841458,-7.4342 -0.213256,-10.42 2.495843,-2.83543 7.63643,-3.74118 11.509501,-2.02794 1.713804,0.7581 5.814994,3.61647 6.431833,4.48274 1.62235,2.27838 2.042117,5.01225 1.164894,7.58676 -0.595744,1.74841 -2.6861,3.83876 -4.434507,4.43451 -1.232511,0.41995 -4.050313,0.56862 -4.911558,0.25912 z m -30.882133,-1.03036 c -1.087249,-0.495 -8.540781,-11.08377 -8.540781,-12.13335 0,-1.31818 2.450705,-3.82387 4.431233,-4.53065 1.476907,-0.52706 4.221866,-0.46143 5.529191,0.13219 1.809051,0.82144 5.257173,3.37777 5.995739,4.44505 2.75999,3.98839 1.474091,9.3062 -2.774442,11.47364 -1.091629,0.5569 -3.93836,0.93299 -4.64094,0.61312 z m 81.946717,-1.01799 c -0.50933,-0.1966 -1.56988,-0.60468 -2.35679,-0.90686 -2.10261,-0.80741 -3.39366,-1.75812 -4.27525,-3.14823 -1.59272,-2.51146 -1.76405,-5.14535 -0.49932,-7.67629 1.46514,-2.93201 4.02628,-4.40816 7.66643,-4.41867 1.72968,-0.005 2.22604,0.11034 3.79085,0.88084 2.38751,1.17559 4.69721,3.43857 5.28677,5.17982 0.55331,1.6342 0.56591,3.92517 0.0302,5.49728 -0.95201,2.794 -4.08703,4.98291 -7.10551,4.96116 -0.88626,-0.006 -2.0281,-0.17246 -2.53742,-0.36905 z m 20.21387,-5.15083 c -0.5968,-0.27103 -1.53317,-0.94086 -2.08082,-1.48851 -3.79647,-3.79647 -2.6958,-10.08644 2.18327,-12.47664 1.36272,-0.66758 1.78575,-0.74078 4.28993,-0.74229 2.51449,-0.002 2.92249,0.0692 4.29947,0.74537 1.15953,0.56939 1.52136,0.88447 1.52136,1.32481 0,0.75351 -3.12402,6.47251 -5.57423,10.20451 -2.16102,3.29152 -2.43344,3.43438 -4.63898,2.43275 z m -3.71982,-28.96356 c -2.0531,-0.67166 -5.02437,-3.09511 -7.28952,-5.94557 -3.60533,-4.53692 -5.20358,-7.74153 -8.7086,-17.46129 -2.13364,-5.916795 -3.12977,-8.243921 -3.52883,-8.243921 -0.18572,0 -3.11238,4.435081 -6.50368,9.855731 -8.95359,14.31141 -11.92632,18.75755 -13.28691,19.87245 -1.97844,1.62118 -4.44963,2.15257 -6.87634,1.47864 -2.28541,-0.63469 -8.954698,-6.77407 -12.919577,-11.89306 -2.9001,-3.74427 -6.26074,-9.00284 -9.351226,-14.63235 -0.543756,-0.99049 -1.127887,-1.754741 -1.29807,-1.698343 -0.170183,0.0564 -1.829477,2.831323 -3.68732,6.166513 -4.208883,7.55574 -7.016184,12.23596 -8.563991,14.27753 -0.657164,0.86681 -1.309719,1.86423 -1.450123,2.2165 -0.553556,1.38884 -2.100313,3.12001 -3.461297,3.87397 -1.276424,0.70712 -1.629611,0.77714 -3.916482,0.77648 -2.10531,-5.3e-4 -2.685428,-0.0965 -3.571875,-0.5902 -1.610801,-0.89719 -2.381779,-1.65182 -3.311641,-3.24144 -0.466865,-0.79811 -1.063,-1.60111 -1.324742,-1.78444 -0.971695,-0.68061 -3.080456,-3.83412 -7.213528,-10.78736 -4.898191,-8.24043 -7.25112,-11.845138 -7.645884,-11.71355 -0.152971,0.05099 -0.602776,0.980993 -0.999561,2.06667 -0.953818,2.60981 -1.623854,3.88657 -3.521333,6.70993 -1.402798,2.0873 -1.614979,2.29764 -1.868328,1.85209 -0.408838,-0.719 -0.38665,-15.349095 0.02885,-19.02347 0.482869,-4.270118 1.401725,-10.054627 1.664576,-10.479063 0.16557,-0.267351 0.831622,-0.368853 2.420427,-0.368853 1.913863,0 2.410218,0.105177 3.911789,0.82891 5.072002,2.444618 10.203566,8.718558 17.875197,21.854526 1.592026,2.72599 3.034802,4.95842 3.206167,4.96094 0.396148,0.006 1.193401,-1.3298 6.314591,-10.578751 9.006948,-16.266684 10.346515,-17.905132 14.880975,-18.201206 1.808726,-0.118097 2.048791,-0.06618 3.881218,0.839462 2.955933,1.460899 3.769466,2.577224 8.603376,11.805494 3.434633,6.556946 6.189612,11.165871 8.576232,14.347561 2.94827,3.93042 3.24658,4.26468 3.66333,4.10476 0.21089,-0.0809 3.2786,-4.77182 6.81715,-10.424209 11.60889,-18.543781 12.77585,-20.166042 15.48154,-21.521862 1.77213,-0.888013 4.50255,-0.914742 6.12986,-0.06001 2.82801,1.485392 6.33553,5.244502 8.86398,9.499785 1.65956,2.792971 2.96319,5.824569 5.45786,12.692247 2.31387,6.369979 3.5842,9.353399 3.98264,9.353399 0.14359,0 0.82434,-1.45852 1.51279,-3.24115 4.99027,-12.921552 6.71924,-16.762598 8.95685,-19.898323 2.36858,-3.319272 5.12831,-5.121744 8.22201,-5.370076 1.46385,-0.117504 1.69652,-0.07077 1.94331,0.390361 0.38961,0.727998 1.2776,7.09319 1.65137,11.83718 0.35143,4.460388 0.20461,16.423188 -0.2066,16.834398 -0.16808,0.16808 -0.65964,-0.78464 -1.40684,-2.72671 -0.63167,-1.64178 -1.30043,-3.37201 -1.48613,-3.84496 -0.18569,-0.47294 -0.445,-0.85989 -0.57622,-0.85989 -0.13122,0 -1.45405,3.18492 -2.93961,7.0776 -4.77339,12.50789 -7.25064,16.75938 -10.7681,18.48031 -1.75943,0.86081 -4.63224,1.10305 -6.36373,0.53662 z M 56.048125,58.341644 c -2.446771,-0.58412 -4.706344,-2.422932 -5.666512,-4.611335 -0.625832,-1.426385 -1.160751,-5.182455 -0.937175,-6.580619 0.428971,-2.682632 2.353606,-5.25503 4.722571,-6.312017 2.069381,-0.923316 4.845759,-0.881977 6.849425,0.101984 1.697656,0.833686 3.230017,2.388629 3.936619,3.994632 0.592044,1.345628 1.144569,5.229889 0.924663,6.500397 -0.583917,3.373601 -2.888067,5.914898 -6.128107,6.758821 -1.644184,0.428257 -2.401215,0.458554 -3.701484,0.148137 z m 26.38744,-0.153371 c -0.783667,-0.218228 -1.974292,-0.795652 -2.645833,-1.283165 -0.671542,-0.487511 -1.654943,-1.088766 -2.185334,-1.336117 -1.591329,-0.74213 -3.059867,-2.1908 -3.848169,-3.79611 -0.991851,-2.019815 -1.036944,-4.789347 -0.111741,-6.862765 0.814355,-1.825006 2.688298,-3.547623 4.67306,-4.295695 2.248283,-0.8474 5.454877,-0.688015 7.527242,0.374142 2.000567,1.025358 5.121459,4.106643 6.020387,5.943986 1.03202,2.109375 1.024432,4.822301 -0.01945,6.95593 -1.705634,3.48619 -5.729412,5.32478 -9.410157,4.299794 z m 26.886885,-0.136972 c -0.54797,-0.135176 -1.48945,-0.497361 -2.09219,-0.804857 -0.60274,-0.307496 -1.69888,-0.738151 -2.43586,-0.957009 -6.156443,-1.828268 -7.94972,-9.43628 -3.24615,-13.771877 2.30132,-2.121286 6.22862,-2.79341 9.57902,-1.639366 1.99696,0.687853 5.25904,2.95366 6.38765,4.43679 3.77682,4.963231 0.52931,12.226324 -5.74097,12.839734 -0.80036,0.0783 -1.90354,0.03176 -2.4515,-0.103415 z m 32.12367,-1.85969 c -0.63349,-0.124555 -1.70505,-0.554731 -2.38125,-0.95595 -0.6762,-0.40122 -1.77741,-0.98701 -2.44712,-1.301758 -6.13252,-2.88213 -6.01321,-11.952624 0.19335,-14.698078 3.51911,-1.556672 8.23756,-0.406773 11.51748,2.80684 2.15622,2.112643 2.7369,3.436935 2.73229,6.2313 -0.003,1.917899 -0.10725,2.446171 -0.70706,3.588666 -0.73241,1.395084 -2.29593,2.988069 -3.57291,3.640233 -0.74693,0.381463 -3.27216,0.998315 -3.86528,0.944194 -0.17474,-0.01595 -0.83602,-0.130894 -1.4695,-0.255447 z"
       id="path4578"
       inkscape:connector-curvature="0" />
  </g>
</svg>
