<?xml version="1.0" encoding="UTF-8" standalone="no"?>
<svg
   xmlns:dc="http://purl.org/dc/elements/1.1/"
   xmlns:cc="http://creativecommons.org/ns#"
   xmlns:rdf="http://www.w3.org/1999/02/22-rdf-syntax-ns#"
   xmlns:svg="http://www.w3.org/2000/svg"
   xmlns="http://www.w3.org/2000/svg"
   id="svg12019"
   version="1.1"
   viewBox="0 0 79.999999 36.706001"
   width="80"
   height="36.706001">
  <defs
     id="defs12013">
    <clipPath
       id="clipPath5342"
       clipPathUnits="userSpaceOnUse">
      <path
         id="path5340"
         d="m 276.319,69.4522 h 1.376 v -8.1874 h -1.376 z" />
    </clipPath>
    <clipPath
       id="clipPath5360"
       clipPathUnits="userSpaceOnUse">
      <path
         id="path5358"
         d="m 276.319,82.7441 h 1.376 v -8.1874 h -1.376 z" />
    </clipPath>
    <clipPath
       id="clipPath5382"
       clipPathUnits="userSpaceOnUse">
      <path
         id="path5380"
         d="m 276.319,54.7435 h 1.376 v -5.461 h -1.376 z" />
    </clipPath>
    <clipPath
       id="clipPath5400"
       clipPathUnits="userSpaceOnUse">
      <path
         id="path5398"
         d="m 237.989,69.3988 h 1.376 v -8.1874 h -1.376 z" />
    </clipPath>
    <clipPath
       id="clipPath5418"
       clipPathUnits="userSpaceOnUse">
      <path
         id="path5416"
         d="m 237.989,82.6907 h 1.376 v -8.1874 h -1.376 z" />
    </clipPath>
    <clipPath
       id="clipPath5440"
       clipPathUnits="userSpaceOnUse">
      <path
         id="path5438"
         d="m 237.989,54.7436 h 1.376 v -5.4611 h -1.376 z" />
    </clipPath>
    <clipPath
       id="clipPath5468"
       clipPathUnits="userSpaceOnUse">
      <path
         id="path5466"
         d="m 237.989,93.2679 h 1.376 v -5.4611 h -1.376 z" />
    </clipPath>
    <clipPath
       id="clipPath5482"
       clipPathUnits="userSpaceOnUse">
      <path
         id="path5480"
         d="m 276.319,93.2679 h 1.376 v -5.4611 h -1.376 z" />
    </clipPath>
    <clipPath
       id="clipPath5522"
       clipPathUnits="userSpaceOnUse">
      <path
         id="path5520"
         d="m 245.566,87.8527 h 24.683 V 55.8074 h -24.683 z" />
    </clipPath>
  </defs>
  <metadata
     id="metadata12016">
    <rdf:RDF>
      <cc:Work
         rdf:about="">
        <dc:format>image/svg+xml</dc:format>
        <dc:type
           rdf:resource="http://purl.org/dc/dcmitype/StillImage" />
        <dc:title></dc:title>
      </cc:Work>
    </rdf:RDF>
  </metadata>
  <rect
     y="-6.2970018"
     x="-5.0450449"
     height="52.372372"
     width="97.297295"
     id="rect1091"
     style="opacity:1;fill:#f5f5f5;fill-opacity:1;stroke:none;stroke-width:5.6692915;stroke-linecap:round;stroke-linejoin:bevel;stroke-miterlimit:4;stroke-dasharray:none;stroke-dashoffset:0;stroke-opacity:1" />
  <g
     id="layer1"
     transform="matrix(0.99396233,0,0,0.99396233,-79.320829,-70.684081)">
    <g
       id="g14872">
      <g
         transform="matrix(0.35277777,0,0,-0.35277777,139.01161,82.758059)"
         id="g5268">
        <path
           id="path5270"
           style="fill:none;stroke:#231f20;stroke-width:0.5;stroke-linecap:butt;stroke-linejoin:round;stroke-miterlimit:10;stroke-dasharray:none;stroke-opacity:1"
           d="M 0,0 H -24.755" />
      </g>
      <g
         transform="matrix(0.35277777,0,0,-0.35277777,131.00966,82.758059)"
         id="g5272">
        <path
           id="path5274"
           style="fill:#231f20;fill-opacity:1;fill-rule:nonzero;stroke:none"
           d="m 0,0 c 0,-1.144 -0.928,-2.072 -2.072,-2.072 -1.144,0 -2.072,0.928 -2.072,2.072 0,1.144 0.928,2.072 2.072,2.072 C -0.928,2.072 0,1.144 0,0" />
      </g>
      <g
         transform="matrix(0.35277777,0,0,-0.35277777,138.07107,81.346453)"
         id="g5276">
        <path
           id="path5278"
           style="fill:#656263;fill-opacity:1;fill-rule:nonzero;stroke:none"
           d="m 0,0 c -0.435,0 -0.884,-0.344 -0.997,-0.765 l -1.591,-5.94 c -0.113,-0.421 0.151,-0.765 0.586,-0.765 h 7.334 c 0.436,0 0.884,0.344 0.997,0.765 l 1.591,5.94 C 8.033,-0.344 7.769,0 7.334,0 Z" />
      </g>
      <g
         transform="matrix(0.35277777,0,0,-0.35277777,138.07107,81.346453)"
         id="g5280">
        <path
           id="path5282"
           style="fill:none;stroke:#4f4c4d;stroke-width:0.2;stroke-linecap:butt;stroke-linejoin:miter;stroke-miterlimit:10;stroke-dasharray:none;stroke-opacity:1"
           d="m 0,0 c -0.435,0 -0.884,-0.344 -0.997,-0.765 l -1.591,-5.94 c -0.113,-0.421 0.151,-0.765 0.586,-0.765 h 7.334 c 0.436,0 0.884,0.344 0.997,0.765 l 1.591,5.94 C 8.033,-0.344 7.769,0 7.334,0 Z" />
      </g>
      <g
         id="text5286"
         style="font-variant:normal;font-weight:normal;font-stretch:normal;font-size:2.70965075px;font-family:Consolas;-inkscape-font-specification:Consolas;writing-mode:lr-tb;fill:#ffffff;fill-opacity:1;fill-rule:nonzero;stroke:none;stroke-width:0.34075704"
         transform="skewX(-15.000062)"
         aria-label="8">
        <path
           id="path1075"
           style="stroke-width:0.34075704"
           d="m 161.22624,82.659255 q -0.17862,0 -0.27653,0.100554 -0.0966,0.09923 -0.0966,0.281814 0,0.182584 0.0979,0.28446 0.0992,0.100554 0.2752,0.100554 0.17993,0 0.27652,-0.09923 0.0979,-0.100553 0.0979,-0.285783 0,-0.181261 -0.0992,-0.281814 -0.0979,-0.100554 -0.2752,-0.100554 z m -0.23286,-0.111138 q -0.17068,-0.04366 -0.26726,-0.162738 -0.0953,-0.119076 -0.0953,-0.287106 0,-0.235507 0.1601,-0.373106 0.16009,-0.138923 0.43529,-0.138923 0.27652,0 0.43661,0.138923 0.16009,0.137599 0.16009,0.373106 0,0.16803 -0.0966,0.287106 -0.0953,0.119077 -0.26594,0.162738 0.19846,0.04366 0.30298,0.175969 0.10585,0.132307 0.10585,0.342675 0,0.267261 -0.17068,0.418091 -0.17067,0.15083 -0.47233,0.15083 -0.30166,0 -0.47234,-0.149507 -0.16935,-0.15083 -0.16935,-0.416768 0,-0.211691 0.10452,-0.343998 0.10585,-0.133631 0.30431,-0.177292 z m -0.0966,-0.424706 q 0,0.158769 0.0847,0.242122 0.0847,0.08335 0.24477,0.08335 0.16141,0 0.24609,-0.08335 0.0847,-0.08335 0.0847,-0.242122 0,-0.161415 -0.0847,-0.246091 -0.0834,-0.08468 -0.24609,-0.08468 -0.1601,0 -0.24477,0.086 -0.0847,0.08468 -0.0847,0.244768 z" />
      </g>
      <g
         transform="matrix(0.35277777,0,0,-0.35277777,141.69523,81.346558)"
         id="g5288">
        <path
           id="path5290"
           style="fill:#ed1c24;fill-opacity:1;fill-rule:nonzero;stroke:none"
           d="m 0,0 c -0.435,0 -0.884,-0.344 -0.997,-0.765 l -1.591,-5.94 c -0.113,-0.421 0.151,-0.765 0.586,-0.765 h 16.209 c 0.435,0 0.884,0.344 0.996,0.765 l 1.592,5.94 C 16.908,-0.344 16.644,0 16.208,0 Z" />
      </g>
      <g
         transform="matrix(0.35277777,0,0,-0.35277777,141.69523,81.346558)"
         id="g5292">
        <path
           id="path5294"
           style="fill:none;stroke:#4f4c4d;stroke-width:0.2;stroke-linecap:butt;stroke-linejoin:miter;stroke-miterlimit:10;stroke-dasharray:none;stroke-opacity:1"
           d="m 0,0 c -0.435,0 -0.884,-0.344 -0.997,-0.765 l -1.591,-5.94 c -0.113,-0.421 0.151,-0.765 0.586,-0.765 h 16.209 c 0.435,0 0.884,0.344 0.996,0.765 l 1.592,5.94 C 16.908,-0.344 16.644,0 16.208,0 Z" />
      </g>
      <g
         id="text5298"
         style="font-variant:normal;font-weight:normal;font-stretch:normal;font-size:2.70965075px;font-family:Consolas;-inkscape-font-specification:Consolas;writing-mode:lr-tb;fill:#ffffff;fill-opacity:1;fill-rule:nonzero;stroke:none;stroke-width:0.34075704"
         transform="skewX(-15.000062)"
         aria-label="VCC">
        <path
           id="path1078"
           style="stroke-width:0.34075704"
           d="m 165.16259,83.372711 0.4644,-1.750424 h 0.27652 l -0.57818,1.975346 h -0.32415 L 164.423,81.622287 h 0.27652 z" />
        <path
           id="path1080"
           style="stroke-width:0.34075704"
           d="m 167.07734,83.527511 q -0.10188,0.05425 -0.20905,0.08071 -0.10716,0.02778 -0.22756,0.02778 -0.37972,0 -0.59009,-0.268583 -0.20905,-0.268584 -0.20905,-0.755474 0,-0.484244 0.21037,-0.754151 0.21169,-0.27123 0.58877,-0.27123 0.1204,0 0.22756,0.02779 0.10717,0.02646 0.20905,0.08071 v 0.273876 q -0.0979,-0.08071 -0.21037,-0.123046 -0.11246,-0.04234 -0.22624,-0.04234 -0.26065,0 -0.39031,0.201107 -0.12966,0.201107 -0.12966,0.60729 0,0.40486 0.12966,0.605967 0.12966,0.201107 0.39031,0.201107 0.11643,0 0.22756,-0.04234 0.11247,-0.04234 0.20905,-0.123045 z" />
        <path
           id="path1082"
           style="stroke-width:0.34075704"
           d="m 168.3563,83.527511 q -0.10188,0.05425 -0.20904,0.08071 -0.10717,0.02778 -0.22757,0.02778 -0.37972,0 -0.59009,-0.268583 -0.20905,-0.268584 -0.20905,-0.755474 0,-0.484244 0.21037,-0.754151 0.21169,-0.27123 0.58877,-0.27123 0.1204,0 0.22757,0.02779 0.10716,0.02646 0.20904,0.08071 v 0.273876 q -0.0979,-0.08071 -0.21037,-0.123046 -0.11246,-0.04234 -0.22624,-0.04234 -0.26065,0 -0.39031,0.201107 -0.12966,0.201107 -0.12966,0.60729 0,0.40486 0.12966,0.605967 0.12966,0.201107 0.39031,0.201107 0.11643,0 0.22757,-0.04234 0.11246,-0.04234 0.20904,-0.123045 z" />
      </g>
      <g
         transform="matrix(0.35277777,0,0,-0.35277777,101.07968,96.374187)"
         id="g5300">
        <path
           id="path5302"
           style="fill:none;stroke:#231f20;stroke-width:0.5;stroke-linecap:butt;stroke-linejoin:round;stroke-miterlimit:10;stroke-dasharray:none;stroke-opacity:1"
           d="M 0,0 H 24.755" />
      </g>
      <g
         transform="matrix(0.35277777,0,0,-0.35277777,109.08163,96.374187)"
         id="g5304">
        <path
           id="path5306"
           style="fill:#231f20;fill-opacity:1;fill-rule:nonzero;stroke:none"
           d="M 0,0 C 0,1.144 0.928,2.072 2.072,2.072 3.216,2.072 4.144,1.144 4.144,0 4.144,-1.144 3.216,-2.072 2.072,-2.072 0.928,-2.072 0,-1.144 0,0" />
      </g>
      <g
         transform="matrix(0.35277777,0,0,-0.35277777,93.384252,94.936897)"
         id="g5308">
        <path
           id="path5310"
           style="fill:#231f20;fill-opacity:1;fill-rule:nonzero;stroke:none"
           d="m 0,0 c -0.435,0 -0.884,-0.344 -0.997,-0.765 l -1.591,-5.94 c -0.113,-0.421 0.151,-0.765 0.586,-0.765 h 16.209 c 0.435,0 0.884,0.344 0.996,0.765 l 1.592,5.94 C 16.908,-0.344 16.644,0 16.208,0 Z" />
      </g>
      <g
         transform="matrix(0.35277777,0,0,-0.35277777,93.384252,94.936897)"
         id="g5312">
        <path
           id="path5314"
           style="fill:none;stroke:#4f4c4d;stroke-width:0.2;stroke-linecap:butt;stroke-linejoin:miter;stroke-miterlimit:10;stroke-dasharray:none;stroke-opacity:1"
           d="m 0,0 c -0.435,0 -0.884,-0.344 -0.997,-0.765 l -1.591,-5.94 c -0.113,-0.421 0.151,-0.765 0.586,-0.765 h 16.209 c 0.435,0 0.884,0.344 0.996,0.765 l 1.592,5.94 C 16.908,-0.344 16.644,0 16.208,0 Z" />
      </g>
      <g
         id="text5318"
         style="font-variant:normal;font-weight:normal;font-stretch:normal;font-size:2.70965075px;font-family:Consolas;-inkscape-font-specification:Consolas;writing-mode:lr-tb;fill:#ffffff;fill-opacity:1;fill-rule:nonzero;stroke:none;stroke-width:0.34075704"
         transform="skewX(-15.000062)"
         aria-label="GND">
        <path
           id="path1085"
           style="stroke-width:0.34075704"
           d="m 121.04925,97.025907 q -0.10717,0.09923 -0.24212,0.15083 -0.13363,0.05028 -0.28976,0.05028 -0.37575,0 -0.58479,-0.268583 -0.20905,-0.269907 -0.20905,-0.755474 0,-0.484244 0.21169,-0.754151 0.21169,-0.27123 0.58877,-0.27123 0.12437,0 0.23815,0.03572 0.11379,0.0344 0.21963,0.105846 v 0.273876 q -0.10717,-0.101877 -0.21963,-0.149507 -0.11246,-0.04895 -0.23815,-0.04895 -0.26065,0 -0.39163,0.20243 -0.12966,0.201107 -0.12966,0.605967 0,0.411475 0.12569,0.609936 0.12702,0.197138 0.38898,0.197138 0.0887,0 0.1548,-0.01985 0.0675,-0.02117 0.12173,-0.06483 v -0.530552 h -0.28711 v -0.219629 h 0.54246 z" />
        <path
           id="path1087"
           style="stroke-width:0.34075704"
           d="m 121.1517,95.213298 h 0.33871 l 0.66683,1.626055 v -1.626055 h 0.258 v 1.975346 h -0.33871 l -0.66683,-1.626055 v 1.626055 h -0.258 z" />
        <path
           id="path1089"
           style="stroke-width:0.34075704"
           d="m 122.93173,96.969015 q 0.33739,0 0.47102,-0.165384 0.13363,-0.166707 0.13363,-0.600675 0,-0.437937 -0.13363,-0.603321 -0.13231,-0.166707 -0.47102,-0.166707 h -0.12701 v 1.536087 z m 0.005,-1.755717 q 0.45249,0 0.66682,0.240799 0.21434,0.2408 0.21434,0.748859 0,0.505413 -0.21434,0.746212 -0.21433,0.239476 -0.66682,0.239476 h -0.4009 v -1.975346 z" />
      </g>
      <g
         transform="matrix(0.35277777,0,0,-0.35277777,100.13914,94.936897)"
         id="g5320">
        <path
           id="path5322"
           style="fill:#656263;fill-opacity:1;fill-rule:nonzero;stroke:none"
           d="m 0,0 c -0.435,0 -0.884,-0.344 -0.997,-0.765 l -1.591,-5.94 c -0.113,-0.421 0.151,-0.765 0.586,-0.765 h 7.334 c 0.436,0 0.884,0.344 0.997,0.765 l 1.591,5.94 C 8.033,-0.344 7.769,0 7.334,0 Z" />
      </g>
      <g
         transform="matrix(0.35277777,0,0,-0.35277777,100.13914,94.936897)"
         id="g5324">
        <path
           id="path5326"
           style="fill:none;stroke:#4f4c4d;stroke-width:0.2;stroke-linecap:butt;stroke-linejoin:miter;stroke-miterlimit:10;stroke-dasharray:none;stroke-opacity:1"
           d="m 0,0 c -0.435,0 -0.884,-0.344 -0.997,-0.765 l -1.591,-5.94 c -0.113,-0.421 0.151,-0.765 0.586,-0.765 h 7.334 c 0.436,0 0.884,0.344 0.997,0.765 l 1.591,5.94 C 8.033,-0.344 7.769,0 7.334,0 Z" />
      </g>
      <g
         id="text5330"
         style="font-variant:normal;font-weight:normal;font-stretch:normal;font-size:2.70965075px;font-family:Consolas;-inkscape-font-specification:Consolas;writing-mode:lr-tb;fill:#ffffff;fill-opacity:1;fill-rule:nonzero;stroke:none;stroke-width:0.34075704"
         transform="skewX(-15.000062)"
         aria-label="4">
        <path
           id="path1092"
           style="stroke-width:0.34075704"
           d="m 127.09296,95.456744 -0.62316,1.043903 h 0.62316 z m -0.0437,-0.243446 h 0.3096 v 1.287349 h 0.26329 v 0.216984 h -0.26329 v 0.471013 h -0.26594 v -0.471013 h -0.8375 v -0.252707 z" />
      </g>
      <path
         id="path5332"
         style="fill:#c5bec1;fill-opacity:1;fill-rule:nonzero;stroke:none;stroke-width:0.35277778"
         d="m 126.59457,90.222094 h 1.13242 v 2.888192 h -1.13242 z" />
      <path
         id="path5334"
         style="fill:#4f4c4d;fill-opacity:1;fill-rule:nonzero;stroke:none;stroke-width:0.35277778"
         d="m 127.71217,90.236558 h -1.10313 v 2.858908 h 1.10313 z m -1.11795,-0.02928 h 1.13277 c 0.008,0 0.0145,0.0067 0.0145,0.01482 v 2.888187 c 0,0.008 -0.007,0.0148 -0.0145,0.0148 h -1.13277 c -0.008,0 -0.0145,-0.007 -0.0145,-0.0148 v -2.888187 c 0,-0.0081 0.007,-0.01482 0.0145,-0.01482" />
      <g
         id="g5336"
         transform="matrix(0.35277777,0,0,-0.35277777,29.115374,114.72322)">
        <g
           id="g5338" />
        <g
           id="g5348">
          <g
             style="opacity:0.69999701"
             id="g5346"
             clip-path="url(#clipPath5342)">
            <path
               id="path5344"
               style="fill:#d7d3d5;fill-opacity:1;fill-rule:nonzero;stroke:none"
               d="m 276.319,69.452 h 1.376 v -8.187 h -1.376 z" />
          </g>
        </g>
      </g>
      <path
         id="path5350"
         style="fill:#c5bec1;fill-opacity:1;fill-rule:nonzero;stroke:none;stroke-width:0.35277778"
         d="m 126.59457,85.532972 h 1.13242 v 2.888193 h -1.13242 z" />
      <path
         id="path5352"
         style="fill:#4f4c4d;fill-opacity:1;fill-rule:nonzero;stroke:none;stroke-width:0.35277778"
         d="m 127.71217,85.54779 h -1.10313 v 2.858911 h 1.10313 z m -1.11795,-0.02928 h 1.13277 c 0.008,0 0.0145,0.0064 0.0145,0.01446 v 2.888192 c 0,0.0081 -0.007,0.01482 -0.0145,0.01482 h -1.13277 c -0.008,0 -0.0145,-0.0067 -0.0145,-0.01482 V 85.53297 c 0,-0.0081 0.007,-0.01446 0.0145,-0.01446" />
      <g
         id="g5354"
         transform="matrix(0.35277777,0,0,-0.35277777,29.115374,114.72322)">
        <g
           id="g5356" />
        <g
           id="g5366">
          <g
             style="opacity:0.69999701"
             id="g5364"
             clip-path="url(#clipPath5360)">
            <path
               id="path5362"
               style="fill:#d7d3d5;fill-opacity:1;fill-rule:nonzero;stroke:none"
               d="m 276.319,82.744 h 1.376 v -8.187 h -1.376 z" />
          </g>
        </g>
      </g>
      <path
         id="path5368"
         style="fill:#c5bec1;fill-opacity:1;fill-rule:nonzero;stroke:none;stroke-width:0.35277778"
         d="m 126.59457,81.82034 h 1.13242 v 1.926519 h -1.13242 z" />
      <path
         id="path5370"
         style="fill:#4f4c4d;fill-opacity:1;fill-rule:nonzero;stroke:none;stroke-width:0.35277778"
         d="m 127.71217,81.834804 h -1.10313 v 1.897239 h 1.10313 z m -1.11795,-0.02928 h 1.13277 c 0.008,0 0.0145,0.0067 0.0145,0.01482 v 1.926519 c 0,0.0081 -0.007,0.01482 -0.0145,0.01482 h -1.13277 c -0.008,0 -0.0145,-0.0067 -0.0145,-0.01482 v -1.926519 c 0,-0.0081 0.007,-0.01482 0.0145,-0.01482" />
      <path
         id="path5372"
         style="fill:#c5bec1;fill-opacity:1;fill-rule:nonzero;stroke:none;stroke-width:0.35277778"
         d="m 126.59457,95.411107 h 1.13242 v 1.926519 h -1.13242 z" />
      <path
         id="path5374"
         style="fill:#4f4c4d;fill-opacity:1;fill-rule:nonzero;stroke:none;stroke-width:0.35277778"
         d="m 127.71217,95.425567 h -1.10313 v 1.897239 h 1.10313 z m -1.11795,-0.0293 h 1.13277 c 0.008,0 0.0145,0.007 0.0145,0.0148 v 1.92616 c 0,0.008 -0.007,0.0148 -0.0145,0.0148 h -1.13277 c -0.008,0 -0.0145,-0.007 -0.0145,-0.0148 v -1.92616 c 0,-0.008 0.007,-0.0148 0.0145,-0.0148" />
      <g
         id="g5376"
         transform="matrix(0.35277777,0,0,-0.35277777,29.115374,114.72322)">
        <g
           id="g5378" />
        <g
           id="g5388">
          <g
             style="opacity:0.69999701"
             id="g5386"
             clip-path="url(#clipPath5382)">
            <path
               id="path5384"
               style="fill:#d7d3d5;fill-opacity:1;fill-rule:nonzero;stroke:none"
               d="m 276.319,49.282 h 1.376 v 5.461 h -1.376 z" />
          </g>
        </g>
      </g>
      <path
         id="path5390"
         style="fill:#c5bec1;fill-opacity:1;fill-rule:nonzero;stroke:none;stroke-width:0.35277778"
         d="m 113.55802,93.129337 h -1.13241 v -2.888192 h 1.13241 z" />
      <path
         id="path5392"
         style="fill:#4f4c4d;fill-opacity:1;fill-rule:nonzero;stroke:none;stroke-width:0.35277778"
         d="m 113.54356,90.255609 h -1.10314 v 2.859268 h 1.10314 z m -1.11795,-0.02928 h 1.13241 c 0.008,0 0.0148,0.0063 0.0148,0.01446 v 2.888548 c 0,0.008 -0.007,0.0145 -0.0148,0.0145 h -1.13241 c -0.008,0 -0.0148,-0.006 -0.0148,-0.0145 v -2.888548 c 0,-0.0081 0.007,-0.01446 0.0148,-0.01446" />
      <g
         id="g5394"
         transform="matrix(0.35277777,0,0,-0.35277777,29.115374,114.72322)">
        <g
           id="g5396" />
        <g
           id="g5406">
          <g
             style="opacity:0.69999701"
             id="g5404"
             clip-path="url(#clipPath5400)">
            <path
               id="path5402"
               style="fill:#d7d3d5;fill-opacity:1;fill-rule:nonzero;stroke:none"
               d="m 239.365,61.211 h -1.376 v 8.187 h 1.376 z" />
          </g>
        </g>
      </g>
      <path
         id="path5408"
         style="fill:#c5bec1;fill-opacity:1;fill-rule:nonzero;stroke:none;stroke-width:0.35277778"
         d="m 113.55802,88.440214 h -1.13241 v -2.888192 h 1.13241 z" />
      <path
         id="path5410"
         style="fill:#4f4c4d;fill-opacity:1;fill-rule:nonzero;stroke:none;stroke-width:0.35277778"
         d="m 113.54356,85.566486 h -1.10314 v 2.858912 h 1.10314 z m -1.11795,-0.02928 h 1.13241 c 0.008,0 0.0148,0.0067 0.0148,0.01446 v 2.888192 c 0,0.0081 -0.007,0.01482 -0.0148,0.01482 h -1.13241 c -0.008,0 -0.0148,-0.0067 -0.0148,-0.01482 v -2.888192 c 0,-0.0078 0.007,-0.01446 0.0148,-0.01446" />
      <g
         id="g5412"
         transform="matrix(0.35277777,0,0,-0.35277777,29.115374,114.72322)">
        <g
           id="g5414" />
        <g
           id="g5424">
          <g
             style="opacity:0.69999701"
             id="g5422"
             clip-path="url(#clipPath5418)">
            <path
               id="path5420"
               style="fill:#d7d3d5;fill-opacity:1;fill-rule:nonzero;stroke:none"
               d="m 239.365,74.503 h -1.376 v 8.187 h 1.376 z" />
          </g>
        </g>
      </g>
      <path
         id="path5426"
         style="fill:#c5bec1;fill-opacity:1;fill-rule:nonzero;stroke:none;stroke-width:0.35277778"
         d="m 113.55802,83.746859 h -1.13241 V 81.82034 h 1.13241 z" />
      <path
         id="path5428"
         style="fill:#4f4c4d;fill-opacity:1;fill-rule:nonzero;stroke:none;stroke-width:0.35277778"
         d="m 113.54356,81.834804 h -1.10314 v 1.897239 h 1.10314 z m -1.11795,-0.02928 h 1.13241 c 0.008,0 0.0148,0.0067 0.0148,0.01482 v 1.926519 c 0,0.0081 -0.007,0.01482 -0.0148,0.01482 h -1.13241 c -0.008,0 -0.0148,-0.0067 -0.0148,-0.01482 v -1.926519 c 0,-0.0081 0.007,-0.01482 0.0148,-0.01482" />
      <path
         id="path5430"
         style="fill:#c5bec1;fill-opacity:1;fill-rule:nonzero;stroke:none;stroke-width:0.35277778"
         d="m 113.55802,97.337266 h -1.13241 v -1.926519 h 1.13241 z" />
      <path
         id="path5432"
         style="fill:#4f4c4d;fill-opacity:1;fill-rule:nonzero;stroke:none;stroke-width:0.35277778"
         d="m 112.44007,97.322806 h 1.10314 v -1.897239 h -1.10314 z m 1.11795,0.0293 h -1.13241 c -0.008,0 -0.0148,-0.007 -0.0148,-0.0148 v -1.92616 c 0,-0.008 0.007,-0.0148 0.0148,-0.0148 h 1.13241 c 0.008,0 0.0148,0.007 0.0148,0.0148 v 1.92616 c 0,0.008 -0.007,0.0148 -0.0148,0.0148" />
      <g
         id="g5434"
         transform="matrix(0.35277777,0,0,-0.35277777,29.115374,114.72322)">
        <g
           id="g5436" />
        <g
           id="g5446">
          <g
             style="opacity:0.69999701"
             id="g5444"
             clip-path="url(#clipPath5440)">
            <path
               id="path5442"
               style="fill:#d7d3d5;fill-opacity:1;fill-rule:nonzero;stroke:none"
               d="m 239.365,54.744 h -1.376 v -5.461 h 1.376 z" />
          </g>
        </g>
      </g>
      <g
         transform="matrix(0.35277777,0,0,-0.35277777,125.69672,92.697396)"
         id="g5448">
        <path
           id="path5450"
           style="fill:#4f4c4d;fill-opacity:1;fill-rule:nonzero;stroke:none"
           d="M 0,0 V -15.634 H -31.864 V 0 33.366 h 6.852 4.765 10.622 6.258 H 0 Z m 2.451,35.443 h -5.818 -5.83 -11.479 -4.336 -9.303 c -0.029,0 -0.052,-0.023 -0.052,-0.052 V 0 -17.752 -17.805 h 0.052 2.451 H 0 2.451 2.503 V -17.752 0 35.391 c 0,0.029 -0.023,0.052 -0.052,0.052" />
      </g>
      <path
         id="path5452"
         style="fill:#5a5758;fill-opacity:1;fill-rule:nonzero;stroke:none;stroke-width:0.35277778"
         d="M 125.69676,98.212507 H 114.45584 V 80.9264 h 11.24092 z" />
      <g
         transform="matrix(0.35277777,0,0,-0.35277777,115.74578,82.08965)"
         id="g5454">
        <path
           id="path5456"
           style="fill:#4f4c4d;fill-opacity:1;fill-rule:nonzero;stroke:none"
           d="m 0,0 c 1.087,0 1.967,-0.881 1.967,-1.967 0,-1.087 -0.88,-1.968 -1.967,-1.968 -1.087,0 -1.967,0.881 -1.967,1.968 C -1.967,-0.881 -1.087,0 0,0" />
      </g>
      <g
         transform="matrix(0.35277777,0,0,-0.35277777,115.74578,83.467706)"
         id="g5458">
        <path
           id="path5460"
           style="fill:#656263;fill-opacity:1;fill-rule:nonzero;stroke:none"
           d="M 0,0 C 1.069,0 1.939,0.87 1.939,1.939 1.939,3.008 1.069,3.878 0,3.878 -1.069,3.878 -1.939,3.008 -1.939,1.939 -1.939,0.87 -1.069,0 0,0 M 0,3.935 C 1.1,3.935 1.996,3.039 1.996,1.939 1.996,0.838 1.1,-0.057 0,-0.057 c -1.1,0 -1.996,0.895 -1.996,1.996 0,1.1 0.896,1.996 1.996,1.996" />
      </g>
      <g
         id="g5462"
         transform="matrix(0.35277777,0,0,-0.35277777,29.115374,114.72322)">
        <g
           id="g5464" />
        <g
           id="g5474">
          <g
             style="opacity:0.69999701"
             id="g5472"
             clip-path="url(#clipPath5468)">
            <path
               id="path5470"
               style="fill:#d7d3d5;fill-opacity:1;fill-rule:nonzero;stroke:none"
               d="m 239.365,93.268 h -1.376 v -5.461 h 1.376 z" />
          </g>
        </g>
      </g>
      <g
         id="g5476"
         transform="matrix(0.35277777,0,0,-0.35277777,29.115374,114.72322)">
        <g
           id="g5478" />
        <g
           id="g5488">
          <g
             style="opacity:0.69999701"
             id="g5486"
             clip-path="url(#clipPath5482)">
            <path
               id="path5484"
               style="fill:#d7d3d5;fill-opacity:1;fill-rule:nonzero;stroke:none"
               d="m 276.319,87.807 h 1.376 v 5.461 h -1.376 z" />
          </g>
        </g>
      </g>
      <path
         id="path5490"
         style="fill:none;stroke:#231f20;stroke-width:0.01763889;stroke-linecap:butt;stroke-linejoin:miter;stroke-miterlimit:10;stroke-dasharray:none;stroke-opacity:1"
         d="M 126.57976,98.978746 H 113.57072 V 80.177101 h 13.00904 z" />
      <g
         transform="matrix(0.35277777,0,0,-0.35277777,113.59122,80.193822)"
         id="g5492">
        <path
           id="path5494"
           style="fill:none;stroke:#656263;stroke-width:0.05;stroke-linecap:butt;stroke-linejoin:miter;stroke-miterlimit:10;stroke-dasharray:none;stroke-opacity:1"
           d="M 0,0 2.45,-2.077" />
      </g>
      <g
         transform="matrix(0.35277777,0,0,-0.35277777,125.69672,80.926576)"
         id="g5496">
        <path
           id="path5498"
           style="fill:none;stroke:#656263;stroke-width:0.05;stroke-linecap:butt;stroke-linejoin:miter;stroke-miterlimit:10;stroke-dasharray:none;stroke-opacity:1"
           d="M 0,0 2.451,2.077" />
      </g>
      <g
         transform="matrix(0.35277777,0,0,-0.35277777,114.4557,98.212657)"
         id="g5500">
        <path
           id="path5502"
           style="fill:none;stroke:#656263;stroke-width:0.05;stroke-linecap:butt;stroke-linejoin:miter;stroke-miterlimit:10;stroke-dasharray:none;stroke-opacity:1"
           d="M 0,0 -2.503,-2.119" />
      </g>
      <g
         transform="matrix(0.35277777,0,0,-0.35277777,125.69672,98.212657)"
         id="g5504">
        <path
           id="path5506"
           style="fill:none;stroke:#656263;stroke-width:0.05;stroke-linecap:butt;stroke-linejoin:miter;stroke-miterlimit:10;stroke-dasharray:none;stroke-opacity:1"
           d="M 0,0 2.503,-2.171" />
      </g>
      <g
         transform="matrix(0.35277777,0,0,-0.35277777,118.05188,80.217106)"
         id="g5508">
        <path
           id="path5510"
           style="fill:#656263;fill-opacity:1;fill-rule:nonzero;stroke:none"
           d="m 0,0 c 0.052,-3.134 2.599,-5.659 5.738,-5.659 3.139,0 5.686,2.525 5.739,5.659 z" />
      </g>
      <g
         transform="matrix(0.35277777,0,0,-0.35277777,122.07655,80.240494)"
         id="g5512">
        <path
           id="path5514"
           style="fill:#231f20;fill-opacity:1;fill-rule:nonzero;stroke:none"
           d="m 0,0 h -11.34 c 0.087,-3.053 2.616,-5.527 5.669,-5.527 3.054,0 5.583,2.474 5.671,5.527 M -11.476,0.132 H 0.135 L 0.134,0.065 c -0.052,-3.156 -2.656,-5.724 -5.805,-5.724 -3.147,0 -5.751,2.568 -5.804,5.724 z" />
      </g>
      <g
         id="g5516"
         transform="matrix(0.35277777,0,0,-0.35277777,29.115374,114.72322)">
        <g
           id="g5518" />
        <g
           id="g5658">
          <g
             style="opacity:0.10000598"
             id="g5656"
             clip-path="url(#clipPath5522)">
            <g
               id="g5526"
               transform="translate(246.0275,85.8178)">
              <path
                 id="path5524"
                 style="fill:#a47343;fill-opacity:1;fill-rule:nonzero;stroke:none"
                 d="m 0,0 v -1.997 l 1.73,0.999 z m -0.23,-2.627 c -0.04,0 -0.08,0.01 -0.116,0.031 -0.071,0.041 -0.115,0.117 -0.115,0.2 v 2.795 c 0,0.082 0.044,0.159 0.115,0.2 0.072,0.041 0.159,0.041 0.231,0 l 2.421,-1.398 c 0.071,-0.041 0.115,-0.117 0.115,-0.199 0,-0.083 -0.044,-0.159 -0.115,-0.2 L -0.115,-2.596 C -0.151,-2.617 -0.191,-2.627 -0.23,-2.627" />
            </g>
            <g
               id="g5530"
               transform="translate(261.2406,83.966)">
              <path
                 id="path5528"
                 style="fill:#a47343;fill-opacity:1;fill-rule:nonzero;stroke:none"
                 d="m 0,0 -2.107,0.702 v -1.404 z m -3.533,-1.664 c -0.158,0 -0.238,0.078 -0.238,0.236 0,0.115 0.055,0.19 0.163,0.225 l 1.026,0.342 V 0.86 l -1.026,0.342 c -0.108,0.035 -0.163,0.11 -0.163,0.225 0,0.158 0.08,0.236 0.238,0.236 0.029,0 0.054,-0.003 0.076,-0.011 L 0.792,0.237 C 0.92,0.194 0.983,0.115 0.983,-0.001 c 0,-0.115 -0.061,-0.193 -0.184,-0.234 l -4.256,-1.419 c -0.022,-0.007 -0.047,-0.01 -0.076,-0.01" />
            </g>
            <g
               id="g5534"
               transform="translate(261.9861,81.3507)">
              <path
                 id="path5532"
                 style="fill:#a47343;fill-opacity:1;fill-rule:nonzero;stroke:none"
                 d="m 0,0 c 0.158,0 0.238,-0.079 0.238,-0.238 v -2.377 c 0,-0.158 -0.08,-0.237 -0.238,-0.237 -0.158,0 -0.238,0.079 -0.238,0.237 v 0.951 h -4.04 c -0.159,0 -0.238,0.079 -0.238,0.238 0,0.158 0.079,0.238 0.238,0.238 h 4.04 v 0.95 C -0.238,-0.079 -0.158,0 0,0" />
            </g>
            <g
               id="g5538"
               transform="translate(261.9861,77.5476)">
              <path
                 id="path5536"
                 style="fill:#a47343;fill-opacity:1;fill-rule:nonzero;stroke:none"
                 d="m 0,0 c 0.158,0 0.238,-0.079 0.238,-0.238 v -2.377 c 0,-0.158 -0.08,-0.237 -0.238,-0.237 -0.158,0 -0.238,0.079 -0.238,0.237 v 0.951 h -4.04 c -0.159,0 -0.238,0.079 -0.238,0.238 0,0.158 0.079,0.238 0.238,0.238 h 4.04 v 0.95 C -0.238,-0.079 -0.158,0 0,0" />
            </g>
            <g
               id="g5542"
               transform="translate(257.4699,73.5069)">
              <path
                 id="path5540"
                 style="fill:#a47343;fill-opacity:1;fill-rule:nonzero;stroke:none"
                 d="m 0,0 c 0,0.158 0.079,0.238 0.238,0.238 h 4.278 c 0.159,0 0.238,-0.08 0.238,-0.238 0,-0.158 -0.079,-0.238 -0.238,-0.238 H 0.238 C 0.079,-0.238 0,-0.158 0,0" />
            </g>
            <g
               id="g5546"
               transform="translate(258.626,69.9415)">
              <path
                 id="path5544"
                 style="fill:#a47343;fill-opacity:1;fill-rule:nonzero;stroke:none"
                 d="m 0,0 h 3.36 c 0.159,0 0.238,-0.079 0.238,-0.238 0,-0.158 -0.079,-0.237 -0.238,-0.237 h -4.278 c -0.159,0 -0.238,0.078 -0.238,0.236 0,0.096 0.04,0.165 0.12,0.208 l 3.482,1.933 h -3.364 c -0.159,0 -0.238,0.079 -0.238,0.237 0,0.159 0.079,0.238 0.238,0.238 H 3.36 c 0.159,0 0.238,-0.079 0.238,-0.238 0,-0.093 -0.047,-0.167 -0.141,-0.219 z" />
            </g>
            <g
               id="g5550"
               transform="translate(259.8433,66.6137)">
              <path
                 id="path5548"
                 style="fill:#a47343;fill-opacity:1;fill-rule:nonzero;stroke:none"
                 d="m 0,0 h -2.136 c -0.158,0 -0.237,0.079 -0.237,0.238 0,0.158 0.079,0.237 0.238,0.237 h 2.141 l 2.002,1.381 c 0.04,0.031 0.086,0.046 0.136,0.046 0.158,0 0.237,-0.08 0.237,-0.238 C 2.381,1.577 2.347,1.511 2.28,1.466 L 0.493,0.238 2.28,-0.99 c 0.067,-0.046 0.101,-0.112 0.101,-0.198 0,-0.159 -0.08,-0.238 -0.238,-0.238 -0.051,0 -0.097,0.014 -0.137,0.042 z" />
            </g>
            <g
               id="g5554"
               transform="translate(258.6584,64.2368)">
              <path
                 id="path5552"
                 style="fill:#a47343;fill-opacity:1;fill-rule:nonzero;stroke:none"
                 d="m 0,0 c 0.026,0 0.048,-0.002 0.065,-0.007 l 3.328,-0.951 c 0.115,-0.034 0.172,-0.11 0.172,-0.23 0,-0.159 -0.079,-0.238 -0.238,-0.238 -0.021,0 -0.044,0.003 -0.068,0.008 l -3.021,0.867 v -1.113 h 0.713 c 0.158,0 0.237,-0.079 0.237,-0.238 0,-0.158 -0.079,-0.237 -0.237,-0.237 H 0.238 v -0.476 c 0,-0.158 -0.08,-0.237 -0.238,-0.237 -0.158,0 -0.238,0.079 -0.238,0.237 v 0.476 h -0.713 c -0.158,0 -0.237,0.079 -0.237,0.237 0,0.159 0.079,0.238 0.237,0.238 h 0.713 v 1.426 C -0.238,-0.079 -0.158,0 0,0" />
            </g>
            <g
               id="g5558"
               transform="translate(260.0845,60.4337)">
              <path
                 id="path5556"
                 style="fill:#a47343;fill-opacity:1;fill-rule:nonzero;stroke:none"
                 d="M 0,0 H 1.902 C 2.06,0 2.139,-0.079 2.139,-0.238 v -1.664 c 0,-0.158 -0.079,-0.237 -0.237,-0.237 -0.159,0 -0.238,0.079 -0.238,0.237 v 1.427 H 0.238 v -0.713 c 0,-0.329 -0.117,-0.61 -0.35,-0.841 -0.233,-0.232 -0.512,-0.348 -0.839,-0.348 h -0.475 c -0.329,0 -0.609,0.117 -0.841,0.349 -0.232,0.233 -0.348,0.513 -0.348,0.84 v 0.95 c 0,0.159 0.08,0.238 0.238,0.238 0.159,0 0.238,-0.079 0.238,-0.238 v -0.95 c 0,-0.2 0.069,-0.368 0.207,-0.506 0.138,-0.139 0.307,-0.208 0.506,-0.208 h 0.475 c 0.197,0 0.365,0.07 0.504,0.209 0.14,0.14 0.209,0.308 0.209,0.505 v 0.95 C -0.238,-0.079 -0.158,0 0,0" />
            </g>
            <g
               id="g5562"
               transform="translate(256.4093,77.2415)">
              <path
                 id="path5560"
                 style="fill:#a47343;fill-opacity:1;fill-rule:nonzero;stroke:none"
                 d="m 0,0 c 0,-0.329 -0.116,-0.609 -0.348,-0.841 -0.231,-0.232 -0.512,-0.347 -0.84,-0.347 -0.226,0 -0.454,0.072 -0.685,0.216 l -2.405,1.498 v -1.477 c 0,-0.158 -0.08,-0.237 -0.238,-0.237 -0.159,0 -0.238,0.079 -0.238,0.237 v 1.902 c 0,0.158 0.079,0.237 0.238,0.237 0.048,0 0.093,-0.013 0.137,-0.039 l 2.798,-1.743 c 0.127,-0.079 0.258,-0.119 0.393,-0.119 0.196,0 0.364,0.07 0.504,0.209 0.139,0.139 0.209,0.307 0.209,0.504 0,0.269 -0.2,0.517 -0.598,0.745 -0.077,0.044 -0.115,0.112 -0.115,0.206 0,0.158 0.079,0.237 0.237,0.237 0.036,0 0.069,-0.007 0.097,-0.021 C -0.285,0.872 0,0.483 0,0" />
            </g>
            <g
               id="g5566"
               transform="translate(254.0324,73.2007)">
              <path
                 id="path5564"
                 style="fill:#a47343;fill-opacity:1;fill-rule:nonzero;stroke:none"
                 d="M 0,0 C 0.394,0 0.765,0.042 1.113,0.126 1.639,0.253 1.902,0.449 1.902,0.713 1.902,0.975 1.637,1.169 1.109,1.297 0.754,1.383 0.384,1.426 0,1.426 -0.391,1.426 -0.762,1.384 -1.113,1.3 -1.639,1.173 -1.902,0.977 -1.902,0.713 c 0,-0.264 0.263,-0.46 0.789,-0.587 C -0.762,0.042 -0.391,0 0,0 m 0,-0.475 c -0.567,0 -1.056,0.069 -1.469,0.208 -0.605,0.205 -0.908,0.531 -0.908,0.98 0,0.449 0.301,0.776 0.904,0.98 C -1.06,1.832 -0.569,1.902 0,1.902 0.569,1.902 1.06,1.832 1.473,1.693 2.076,1.489 2.377,1.162 2.377,0.713 2.377,0.264 2.074,-0.062 1.469,-0.267 1.056,-0.406 0.567,-0.475 0,-0.475" />
            </g>
            <g
               id="g5570"
               transform="translate(255.9339,71.2992)">
              <path
                 id="path5568"
                 style="fill:#a47343;fill-opacity:1;fill-rule:nonzero;stroke:none"
                 d="m 0,0 h -1.902 v -0.951 c 0,-0.266 0.092,-0.491 0.276,-0.675 0.184,-0.184 0.409,-0.276 0.675,-0.276 0.267,0 0.492,0.092 0.676,0.276 C -0.092,-1.442 0,-1.217 0,-0.951 Z m 0.475,0.238 v -1.189 c 0,-0.396 -0.138,-0.733 -0.416,-1.01 -0.277,-0.277 -0.614,-0.416 -1.01,-0.416 -0.422,0 -0.766,0.132 -1.03,0.396 -0.264,0.264 -0.396,0.608 -0.396,1.03 V 0 h -1.664 c -0.158,0 -0.237,0.079 -0.237,0.238 0,0.158 0.079,0.237 0.237,0.237 h 4.279 c 0.158,0 0.237,-0.079 0.237,-0.237" />
            </g>
            <g
               id="g5574"
               transform="translate(256.1716,65.1192)">
              <path
                 id="path5572"
                 style="fill:#a47343;fill-opacity:1;fill-rule:nonzero;stroke:none"
                 d="m 0,0 h -3.09 c -0.394,0 -0.73,0.139 -1.008,0.418 -0.279,0.278 -0.418,0.614 -0.418,1.008 0,0.394 0.139,0.73 0.418,1.009 0.278,0.278 0.614,0.417 1.008,0.417 H 0 C 0.158,2.852 0.238,2.773 0.238,2.615 0.238,2.456 0.158,2.377 0,2.377 h -3.09 c -0.267,0 -0.492,-0.092 -0.675,-0.276 -0.184,-0.183 -0.276,-0.408 -0.276,-0.675 0,-0.266 0.092,-0.491 0.276,-0.675 0.183,-0.184 0.408,-0.276 0.675,-0.276 H 0 C 0.158,0.475 0.238,0.396 0.238,0.238 0.238,0.079 0.158,0 0,0" />
            </g>
            <g
               id="g5578"
               transform="translate(265.6619,65.3151)">
              <path
                 id="path5576"
                 style="fill:#a47343;fill-opacity:1;fill-rule:nonzero;stroke:none"
                 d="M 0,0 C 0.394,0 0.765,0.042 1.113,0.126 1.639,0.253 1.902,0.449 1.902,0.713 1.902,0.975 1.637,1.169 1.109,1.297 0.754,1.383 0.384,1.426 0,1.426 -0.391,1.426 -0.762,1.384 -1.113,1.3 -1.639,1.173 -1.902,0.977 -1.902,0.713 c 0,-0.264 0.263,-0.46 0.789,-0.587 C -0.762,0.042 -0.391,0 0,0 m 0,-0.475 c -0.567,0 -1.056,0.069 -1.469,0.208 -0.605,0.205 -0.908,0.531 -0.908,0.98 0,0.449 0.301,0.776 0.904,0.98 C -1.06,1.832 -0.569,1.902 0,1.902 0.569,1.902 1.06,1.832 1.473,1.693 2.076,1.489 2.377,1.162 2.377,0.713 2.377,0.264 2.074,-0.062 1.469,-0.267 1.056,-0.406 0.567,-0.475 0,-0.475" />
            </g>
            <g
               id="g5582"
               transform="translate(265.424,62.5234)">
              <path
                 id="path5580"
                 style="fill:#a47343;fill-opacity:1;fill-rule:nonzero;stroke:none"
                 d="m 0,0 v 0.176 c 0,0.16 0.08,0.239 0.238,0.239 0.158,0 0.238,-0.079 0.238,-0.237 v -0.28 L 2.14,-0.475 v 1.603 c 0,0.158 0.079,0.238 0.237,0.238 0.159,0 0.238,-0.08 0.238,-0.238 v -1.902 c 0,-0.156 -0.077,-0.235 -0.231,-0.237 -0.014,0 -0.033,0.002 -0.057,0.007 l -1.851,0.411 v -0.18 c 0,-0.159 -0.08,-0.238 -0.238,-0.238 C 0.08,-1.011 0,-0.932 0,-0.773 l 0.001,0.289 -1.953,0.431 c -0.125,0.028 -0.187,0.104 -0.187,0.226 0,0.161 0.079,0.242 0.238,0.242 0.024,0 0.041,-0.001 0.053,-0.004 z" />
            </g>
            <g
               id="g5586"
               transform="translate(267.2261,59.6105)">
              <path
                 id="path5584"
                 style="fill:#a47343;fill-opacity:1;fill-rule:nonzero;stroke:none"
                 d="m 0,0 -0.546,0.546 c -0.045,0.046 -0.067,0.102 -0.067,0.166 0,0.16 0.079,0.239 0.237,0.239 0.065,0 0.12,-0.023 0.166,-0.069 l 0.929,-0.929 c 0.063,-0.062 0.094,-0.126 0.094,-0.191 0,-0.158 -0.08,-0.237 -0.238,-0.237 h -4.278 c -0.159,0 -0.238,0.079 -0.238,0.237 0,0.159 0.079,0.238 0.238,0.238 z" />
            </g>
            <g
               id="g5590"
               transform="translate(265.424,56.8188)">
              <path
                 id="path5588"
                 style="fill:#a47343;fill-opacity:1;fill-rule:nonzero;stroke:none"
                 d="m 0,0 v 0.176 c 0,0.16 0.08,0.239 0.238,0.239 0.158,0 0.238,-0.079 0.238,-0.237 v -0.28 L 2.14,-0.475 v 1.603 c 0,0.158 0.079,0.238 0.237,0.238 0.159,0 0.238,-0.08 0.238,-0.238 v -1.902 c 0,-0.156 -0.077,-0.235 -0.231,-0.237 -0.014,0 -0.033,0.002 -0.057,0.007 l -1.851,0.411 v -0.18 c 0,-0.159 -0.08,-0.238 -0.238,-0.238 C 0.08,-1.011 0,-0.932 0,-0.773 l 0.001,0.289 -1.953,0.431 c -0.125,0.028 -0.187,0.104 -0.187,0.226 0,0.161 0.079,0.242 0.238,0.242 0.024,0 0.041,-0.001 0.053,-0.004 z" />
            </g>
            <g
               id="g5594"
               transform="translate(269.716,72.8394)">
              <path
                 id="path5592"
                 style="fill:#a47343;fill-opacity:1;fill-rule:nonzero;stroke:none"
                 d="m 0,0 v 11.713 c 0,0.148 0.119,0.267 0.266,0.267 0.148,0 0.267,-0.119 0.267,-0.267 V 0 C 0.533,-0.147 0.414,-0.266 0.266,-0.266 0.119,-0.266 0,-0.147 0,0" />
            </g>
            <g
               id="g5598"
               transform="translate(263.2273,73.8509)">
              <path
                 id="path5596"
                 style="fill:#a47343;fill-opacity:1;fill-rule:nonzero;stroke:none"
                 d="m 0,0 v 13.736 c 0,0.147 0.119,0.266 0.266,0.266 0.148,0 0.267,-0.119 0.267,-0.266 V 0 C 0.533,-0.147 0.414,-0.266 0.266,-0.266 0.119,-0.266 0,-0.147 0,0" />
            </g>
            <g
               id="g5602"
               transform="translate(264.2384,83.4573)">
              <path
                 id="path5600"
                 style="fill:#a47343;fill-opacity:1;fill-rule:nonzero;stroke:none"
                 d="M 0,0 C 0,0.147 0.119,0.266 0.266,0.266 H 5.744 C 5.891,0.266 6.01,0.147 6.01,0 6.01,-0.147 5.891,-0.266 5.744,-0.266 H 0.266 C 0.119,-0.266 0,-0.147 0,0" />
            </g>
            <g
               id="g5606"
               transform="translate(264.2384,87.5866)">
              <path
                 id="path5604"
                 style="fill:#a47343;fill-opacity:1;fill-rule:nonzero;stroke:none"
                 d="M 0,0 C 0,0.049 0.013,0.098 0.041,0.142 0.119,0.266 0.284,0.304 0.408,0.225 L 4.622,-2.429 C 4.746,-2.508 4.783,-2.672 4.705,-2.797 4.627,-2.921 4.462,-2.958 4.338,-2.88 L 0.124,-0.225 C 0.044,-0.175 0,-0.088 0,0" />
            </g>
            <g
               id="g5610"
               transform="translate(264.2384,84.9321)">
              <path
                 id="path5608"
                 style="fill:#a47343;fill-opacity:1;fill-rule:nonzero;stroke:none"
                 d="M 0,0 C 0,0.147 0.119,0.266 0.266,0.266 H 4.48 C 4.627,0.266 4.746,0.147 4.746,0 4.746,-0.147 4.627,-0.266 4.48,-0.266 H 0.266 C 0.119,-0.266 0,-0.147 0,0" />
            </g>
            <g
               id="g5614"
               transform="translate(264.2384,86.065)">
              <path
                 id="path5612"
                 style="fill:#a47343;fill-opacity:1;fill-rule:nonzero;stroke:none"
                 d="m 0,0 v 1.521 c 0,0.148 0.119,0.267 0.266,0.267 0.147,0 0.267,-0.119 0.267,-0.267 V 0 c 0,-0.147 -0.12,-0.266 -0.267,-0.266 C 0.119,-0.266 0,-0.147 0,0" />
            </g>
            <g
               id="g5618"
               transform="translate(264.2384,82.1091)">
              <path
                 id="path5616"
                 style="fill:#a47343;fill-opacity:1;fill-rule:nonzero;stroke:none"
                 d="M 0,0 C 0,0.147 0.119,0.266 0.266,0.266 H 4.48 C 4.627,0.266 4.746,0.147 4.746,0 4.746,-0.147 4.627,-0.266 4.48,-0.266 H 0.266 C 0.119,-0.266 0,-0.147 0,0" />
            </g>
            <g
               id="g5622"
               transform="translate(268.4521,78.7209)">
              <path
                 id="path5620"
                 style="fill:#a47343;fill-opacity:1;fill-rule:nonzero;stroke:none"
                 d="m 0,0 v 3.388 c 0,0.147 0.119,0.266 0.266,0.266 0.148,0 0.267,-0.119 0.267,-0.266 V 0 C 0.533,-0.147 0.414,-0.266 0.266,-0.266 0.119,-0.266 0,-0.147 0,0" />
            </g>
            <g
               id="g5626"
               transform="translate(264.2384,78.7209)">
              <path
                 id="path5624"
                 style="fill:#a47343;fill-opacity:1;fill-rule:nonzero;stroke:none"
                 d="M 0,0 C 0,0.147 0.119,0.266 0.266,0.266 H 4.48 C 4.627,0.266 4.746,0.147 4.746,0 4.746,-0.147 4.627,-0.266 4.48,-0.266 H 0.266 C 0.119,-0.266 0,-0.147 0,0" />
            </g>
            <g
               id="g5630"
               transform="translate(264.7864,80.415)">
              <path
                 id="path5628"
                 style="fill:#a47343;fill-opacity:1;fill-rule:nonzero;stroke:none"
                 d="M 0,0 C 0,0.147 0.119,0.266 0.266,0.266 H 3.932 C 4.079,0.266 4.198,0.147 4.198,0 4.198,-0.147 4.079,-0.266 3.932,-0.266 H 0.266 C 0.119,-0.266 0,-0.147 0,0" />
            </g>
            <g
               id="g5634"
               transform="translate(264.2384,77.7272)">
              <path
                 id="path5632"
                 style="fill:#a47343;fill-opacity:1;fill-rule:nonzero;stroke:none"
                 d="M 0,0 C 0,0.147 0.119,0.266 0.266,0.266 H 4.48 C 4.627,0.266 4.746,0.147 4.746,0 4.746,-0.147 4.627,-0.266 4.48,-0.266 H 0.266 C 0.119,-0.266 0,-0.147 0,0" />
            </g>
            <g
               id="g5638"
               transform="translate(264.2384,75.4042)">
              <path
                 id="path5636"
                 style="fill:#a47343;fill-opacity:1;fill-rule:nonzero;stroke:none"
                 d="m 0,0 v 2.07 c 0,0.147 0.119,0.266 0.266,0.266 0.147,0 0.267,-0.119 0.267,-0.266 V 0 c 0,-0.147 -0.12,-0.266 -0.267,-0.266 C 0.119,-0.266 0,-0.147 0,0" />
            </g>
            <g
               id="g5642"
               transform="translate(268.4521,75.3613)">
              <path
                 id="path5640"
                 style="fill:#a47343;fill-opacity:1;fill-rule:nonzero;stroke:none"
                 d="m 0,0 v 2.366 c 0,0.147 0.119,0.266 0.266,0.266 0.148,0 0.267,-0.119 0.267,-0.266 V 0 C 0.533,-0.147 0.414,-0.266 0.266,-0.266 0.119,-0.266 0,-0.147 0,0" />
            </g>
            <g
               id="g5646"
               transform="translate(266.3452,75.4042)">
              <path
                 id="path5644"
                 style="fill:#a47343;fill-opacity:1;fill-rule:nonzero;stroke:none"
                 d="M 0,0 V 2.323 C 0,2.47 0.119,2.589 0.266,2.589 0.414,2.589 0.533,2.47 0.533,2.323 V 0 C 0.533,-0.147 0.414,-0.266 0.266,-0.266 0.119,-0.266 0,-0.147 0,0" />
            </g>
            <g
               id="g5650"
               transform="translate(264.2384,74.4407)">
              <path
                 id="path5648"
                 style="fill:#a47343;fill-opacity:1;fill-rule:nonzero;stroke:none"
                 d="M 0,0 C 0,0.147 0.119,0.266 0.266,0.266 H 4.48 C 4.627,0.266 4.746,0.147 4.746,0 4.746,-0.147 4.627,-0.266 4.48,-0.266 H 0.266 C 0.119,-0.266 0,-0.147 0,0" />
            </g>
            <g
               id="g5654"
               transform="translate(264.2384,72.8394)">
              <path
                 id="path5652"
                 style="fill:#a47343;fill-opacity:1;fill-rule:nonzero;stroke:none"
                 d="m 0,0 v 1.601 c 0,0.147 0.119,0.267 0.266,0.267 0.147,0 0.267,-0.12 0.267,-0.267 V 0 c 0,-0.147 -0.12,-0.266 -0.267,-0.266 C 0.119,-0.266 0,-0.147 0,0" />
            </g>
          </g>
        </g>
      </g>
      <g
         transform="matrix(0.35277777,0,0,-0.35277777,139.01161,91.657477)"
         id="g5660">
        <path
           id="path5662"
           style="fill:none;stroke:#231f20;stroke-width:0.5;stroke-linecap:butt;stroke-linejoin:round;stroke-miterlimit:10;stroke-dasharray:none;stroke-opacity:1"
           d="M 0,0 H -24.755" />
      </g>
      <g
         transform="matrix(0.35277777,0,0,-0.35277777,131.00966,91.657477)"
         id="g5664">
        <path
           id="path5666"
           style="fill:#231f20;fill-opacity:1;fill-rule:nonzero;stroke:none"
           d="m 0,0 c 0,-1.144 -0.928,-2.072 -2.072,-2.072 -1.144,0 -2.072,0.928 -2.072,2.072 0,1.144 0.928,2.072 2.072,2.072 C -0.928,2.072 0,1.144 0,0" />
      </g>
      <g
         transform="matrix(0.35277777,0,0,-0.35277777,149.40673,91.143904)"
         id="g5680">
        <path
           id="path5682"
           style="fill:#cceef7;fill-opacity:1;fill-rule:nonzero;stroke:none"
           d="m 0,0 -5.191,1.548 -3.346,0.998 h -3.266 -10.121 c -0.435,0 -0.884,-0.344 -0.997,-0.765 l -1.591,-5.941 c -0.113,-0.42 0.151,-0.764 0.586,-0.764 h 12.173 3.376 l 1.38,0.328 6.915,1.648 C 2.965,-2.222 3.002,-0.895 0,0" />
      </g>
      <g
         transform="matrix(0.35277777,0,0,-0.35277777,149.40673,91.143904)"
         id="g5684">
        <path
           id="path5686"
           style="fill:none;stroke:#4f4c4d;stroke-width:0.2;stroke-linecap:butt;stroke-linejoin:miter;stroke-miterlimit:10;stroke-dasharray:none;stroke-opacity:1"
           d="m 0,0 -5.191,1.548 -3.346,0.998 h -3.266 -10.121 c -0.435,0 -0.884,-0.344 -0.997,-0.765 l -1.591,-5.941 c -0.113,-0.42 0.151,-0.764 0.586,-0.764 h 12.173 3.376 l 1.38,0.328 6.915,1.648 C 2.965,-2.222 3.002,-0.895 0,0 Z" />
      </g>
      <g
         id="text5690"
         style="font-variant:normal;font-weight:normal;font-stretch:normal;font-size:2.70965075px;font-family:Consolas;-inkscape-font-specification:Consolas;writing-mode:lr-tb;fill:#231f20;fill-opacity:1;fill-rule:nonzero;stroke:none;stroke-width:0.34075704"
         transform="skewX(-15.000062)"
         aria-label="MISO">
        <path
           id="path1095"
           style="stroke-width:0.34075704"
           d="m 166.35146,90.521923 h 0.35722 l 0.34136,1.005534 0.344,-1.005534 h 0.35855 v 1.975346 h -0.24742 v -1.745132 l -0.35193,1.041258 h -0.20243 l -0.35326,-1.041258 v 1.745132 h -0.24609 z" />
        <path
           id="path1097"
           style="stroke-width:0.34075704"
           d="m 167.83376,90.521923 h 1.09683 v 0.224922 h -0.41412 v 1.525501 h 0.41412 v 0.224923 h -1.09683 v -0.224923 h 0.41412 v -1.525501 h -0.41412 z" />
        <path
           id="path1099"
           style="stroke-width:0.34075704"
           d="m 170.19793,90.589399 v 0.27123 q -0.12173,-0.07806 -0.24477,-0.117753 -0.12172,-0.03969 -0.24609,-0.03969 -0.1892,0 -0.29902,0.08865 -0.10981,0.08732 -0.10981,0.23683 0,0.130984 0.0714,0.199784 0.0728,0.0688 0.26991,0.115107 l 0.14025,0.03175 q 0.27784,0.06483 0.40486,0.203753 0.12701,0.138922 0.12701,0.378398 0,0.281815 -0.17464,0.429999 -0.17465,0.148184 -0.50806,0.148184 -0.13893,0 -0.27917,-0.03043 -0.14025,-0.02911 -0.28182,-0.08865 v -0.28446 q 0.15216,0.09658 0.28711,0.141569 0.13628,0.04498 0.27388,0.04498 0.20243,0 0.31489,-0.08997 0.11246,-0.09129 0.11246,-0.25403 0,-0.148184 -0.0781,-0.226245 -0.0767,-0.07806 -0.26859,-0.120399 l -0.14289,-0.03308 q -0.2752,-0.06218 -0.39957,-0.187876 -0.12436,-0.125692 -0.12436,-0.337384 0,-0.264614 0.17729,-0.423383 0.17861,-0.160091 0.47366,-0.160091 0.11378,0 0.23947,0.02646 0.12569,0.02514 0.26462,0.07674 z" />
        <path
           id="path1101"
           style="stroke-width:0.34075704"
           d="m 171.39655,91.51158 q 0,-0.43529 -0.09,-0.621843 -0.0886,-0.186553 -0.29239,-0.186553 -0.20243,0 -0.2924,0.186553 -0.0887,0.186553 -0.0887,0.621843 0,0.433968 0.0887,0.620521 0.09,0.186553 0.2924,0.186553 0.20375,0 0.29239,-0.18523 0.09,-0.186553 0.09,-0.621844 z m 0.27917,0 q 0,0.515998 -0.16406,0.770028 -0.16274,0.25403 -0.49747,0.25403 -0.33474,0 -0.49748,-0.252707 -0.16274,-0.252707 -0.16274,-0.771351 0,-0.517321 0.16274,-0.77135 0.16406,-0.25403 0.49748,-0.25403 0.33473,0 0.49747,0.25403 0.16406,0.254029 0.16406,0.77135 z" />
      </g>
      <g
         transform="matrix(0.35277777,0,0,-0.35277777,138.07107,90.212075)"
         id="g5692">
        <path
           id="path5694"
           style="fill:#656263;fill-opacity:1;fill-rule:nonzero;stroke:none"
           d="m 0,0 c -0.435,0 -0.884,-0.344 -0.997,-0.765 l -1.591,-5.94 c -0.113,-0.421 0.151,-0.765 0.586,-0.765 h 7.334 c 0.436,0 0.884,0.344 0.997,0.765 l 1.591,5.94 C 8.033,-0.344 7.769,0 7.334,0 Z" />
      </g>
      <g
         transform="matrix(0.35277777,0,0,-0.35277777,138.07107,90.212075)"
         id="g5696">
        <path
           id="path5698"
           style="fill:none;stroke:#4f4c4d;stroke-width:0.2;stroke-linecap:butt;stroke-linejoin:miter;stroke-miterlimit:10;stroke-dasharray:none;stroke-opacity:1"
           d="m 0,0 c -0.435,0 -0.884,-0.344 -0.997,-0.765 l -1.591,-5.94 c -0.113,-0.421 0.151,-0.765 0.586,-0.765 h 7.334 c 0.436,0 0.884,0.344 0.997,0.765 l 1.591,5.94 C 8.033,-0.344 7.769,0 7.334,0 Z" />
      </g>
      <g
         id="text5702"
         style="font-variant:normal;font-weight:normal;font-stretch:normal;font-size:2.70965075px;font-family:Consolas;-inkscape-font-specification:Consolas;writing-mode:lr-tb;fill:#ffffff;fill-opacity:1;fill-rule:nonzero;stroke:none;stroke-width:0.34075704"
         transform="skewX(-15.000062)"
         aria-label="6">
        <path
           id="path1104"
           style="stroke-width:0.34075704"
           d="m 164.09815,90.53161 v 0.246092 q -0.0833,-0.04895 -0.17729,-0.07409 -0.0939,-0.02646 -0.19581,-0.02646 -0.25403,0 -0.38502,0.191846 -0.13098,0.190522 -0.13098,0.562305 0.0635,-0.132307 0.17597,-0.20243 0.11246,-0.07145 0.25799,-0.07145 0.28579,0 0.44191,0.175969 0.15745,0.174645 0.15745,0.496152 0,0.320183 -0.16142,0.496152 -0.16141,0.175968 -0.45381,0.175968 -0.344,0 -0.50409,-0.246091 -0.16009,-0.247415 -0.16009,-0.777966 0,-0.500121 0.19184,-0.76209 0.19317,-0.263291 0.55834,-0.263291 0.0979,0 0.19581,0.02117 0.0979,0.01985 0.1892,0.05822 z m -0.4763,0.834859 q -0.17068,0 -0.26859,0.123045 -0.0979,0.123046 -0.0979,0.34003 0,0.216983 0.0979,0.340029 0.0979,0.123046 0.26859,0.123046 0.17729,0 0.26726,-0.116431 0.09,-0.117753 0.09,-0.346644 0,-0.230215 -0.09,-0.346645 -0.09,-0.11643 -0.26726,-0.11643 z" />
      </g>
      <g
         transform="matrix(0.35277777,0,0,-0.35277777,139.01161,86.968461)"
         id="g5704">
        <path
           id="path5706"
           style="fill:none;stroke:#231f20;stroke-width:0.5;stroke-linecap:butt;stroke-linejoin:round;stroke-miterlimit:10;stroke-dasharray:none;stroke-opacity:1"
           d="M 0,0 H -24.755" />
      </g>
      <g
         transform="matrix(0.35277777,0,0,-0.35277777,131.00966,86.968461)"
         id="g5708">
        <path
           id="path5710"
           style="fill:#231f20;fill-opacity:1;fill-rule:nonzero;stroke:none"
           d="m 0,0 c 0,-1.144 -0.928,-2.072 -2.072,-2.072 -1.144,0 -2.072,0.928 -2.072,2.072 0,1.144 0.928,2.072 2.072,2.072 C -0.928,2.072 0,1.144 0,0" />
      </g>
      <g
         transform="matrix(0.35277777,0,0,-0.35277777,149.40673,86.454886)"
         id="g5724">
        <path
           id="path5726"
           style="fill:#cceef7;fill-opacity:1;fill-rule:nonzero;stroke:none"
           d="m 0,0 -5.191,1.548 -3.346,0.998 h -3.266 -10.121 c -0.435,0 -0.884,-0.344 -0.997,-0.765 l -1.591,-5.941 c -0.113,-0.42 0.151,-0.764 0.586,-0.764 h 12.173 3.376 l 1.38,0.328 6.915,1.648 C 2.965,-2.222 3.002,-0.895 0,0" />
      </g>
      <g
         transform="matrix(0.35277777,0,0,-0.35277777,149.40673,86.454886)"
         id="g5728">
        <path
           id="path5730"
           style="fill:none;stroke:#4f4c4d;stroke-width:0.2;stroke-linecap:butt;stroke-linejoin:miter;stroke-miterlimit:10;stroke-dasharray:none;stroke-opacity:1"
           d="m 0,0 -5.191,1.548 -3.346,0.998 h -3.266 -10.121 c -0.435,0 -0.884,-0.344 -0.997,-0.765 l -1.591,-5.941 c -0.113,-0.42 0.151,-0.764 0.586,-0.764 h 12.173 3.376 l 1.38,0.328 6.915,1.648 C 2.965,-2.222 3.002,-0.895 0,0 Z" />
      </g>
      <g
         id="text5734"
         style="font-variant:normal;font-weight:normal;font-stretch:normal;font-size:2.70965075px;font-family:Consolas;-inkscape-font-specification:Consolas;writing-mode:lr-tb;fill:#231f20;fill-opacity:1;fill-rule:nonzero;stroke:none;stroke-width:0.34075704"
         transform="skewX(-15.000062)"
         aria-label="SCK">
        <path
           id="path1107"
           style="stroke-width:0.34075704"
           d="m 166.98957,85.900305 v 0.271229 q -0.12172,-0.07806 -0.24477,-0.117753 -0.12172,-0.03969 -0.24609,-0.03969 -0.1892,0 -0.29902,0.08865 -0.10981,0.08732 -0.10981,0.23683 0,0.130984 0.0714,0.199783 0.0728,0.0688 0.2699,0.115108 l 0.14025,0.03175 q 0.27784,0.06483 0.40486,0.203753 0.12701,0.138923 0.12701,0.378399 0,0.281814 -0.17464,0.429998 -0.17465,0.148184 -0.50806,0.148184 -0.13893,0 -0.27917,-0.03043 -0.14025,-0.02911 -0.28182,-0.08865 v -0.284461 q 0.15216,0.09659 0.28711,0.141569 0.13628,0.04498 0.27388,0.04498 0.20243,0 0.31489,-0.08997 0.11246,-0.09129 0.11246,-0.25403 0,-0.148184 -0.0781,-0.226245 -0.0767,-0.07806 -0.26859,-0.1204 l -0.14289,-0.03308 q -0.2752,-0.06218 -0.39956,-0.187876 -0.12437,-0.125692 -0.12437,-0.337383 0,-0.264615 0.17729,-0.423383 0.17861,-0.160092 0.47366,-0.160092 0.11378,0 0.23947,0.02646 0.1257,0.02514 0.26462,0.07674 z" />
        <path
           id="path1109"
           style="stroke-width:0.34075704"
           d="m 168.38906,87.738051 q -0.10187,0.05425 -0.20904,0.08071 -0.10717,0.02778 -0.22757,0.02778 -0.37972,0 -0.59009,-0.268583 -0.20905,-0.268584 -0.20905,-0.755474 0,-0.484244 0.21037,-0.754151 0.21169,-0.27123 0.58877,-0.27123 0.1204,0 0.22757,0.02778 0.10717,0.02646 0.20904,0.08071 v 0.273876 q -0.0979,-0.08071 -0.21037,-0.123046 -0.11246,-0.04234 -0.22624,-0.04234 -0.26065,0 -0.39031,0.201107 -0.12966,0.201107 -0.12966,0.60729 0,0.40486 0.12966,0.605967 0.12966,0.201106 0.39031,0.201106 0.11643,0 0.22757,-0.04234 0.11246,-0.04234 0.20904,-0.123045 z" />
        <path
           id="path1111"
           style="stroke-width:0.34075704"
           d="m 168.45482,85.832828 h 0.26858 v 0.87852 l 0.83486,-0.87852 h 0.31357 l -0.7687,0.807074 0.79119,1.168272 h -0.32283 l -0.64433,-0.989657 -0.20376,0.216983 v 0.772674 h -0.26858 z" />
      </g>
      <g
         transform="matrix(0.35277777,0,0,-0.35277777,138.07107,85.52306)"
         id="g5736">
        <path
           id="path5738"
           style="fill:#656263;fill-opacity:1;fill-rule:nonzero;stroke:none"
           d="m 0,0 c -0.435,0 -0.884,-0.344 -0.997,-0.765 l -1.591,-5.94 c -0.113,-0.421 0.151,-0.765 0.586,-0.765 h 7.334 c 0.436,0 0.884,0.344 0.997,0.765 l 1.591,5.94 C 8.033,-0.344 7.769,0 7.334,0 Z" />
      </g>
      <g
         transform="matrix(0.35277777,0,0,-0.35277777,138.07107,85.52306)"
         id="g5740">
        <path
           id="path5742"
           style="fill:none;stroke:#4f4c4d;stroke-width:0.2;stroke-linecap:butt;stroke-linejoin:miter;stroke-miterlimit:10;stroke-dasharray:none;stroke-opacity:1"
           d="m 0,0 c -0.435,0 -0.884,-0.344 -0.997,-0.765 l -1.591,-5.94 c -0.113,-0.421 0.151,-0.765 0.586,-0.765 h 7.334 c 0.436,0 0.884,0.344 0.997,0.765 l 1.591,5.94 C 8.033,-0.344 7.769,0 7.334,0 Z" />
      </g>
      <g
         id="text5746"
         style="font-variant:normal;font-weight:normal;font-stretch:normal;font-size:2.70965075px;font-family:Consolas;-inkscape-font-specification:Consolas;writing-mode:lr-tb;fill:#ffffff;fill-opacity:1;fill-rule:nonzero;stroke:none;stroke-width:0.34075704"
         transform="skewX(-15.000062)"
         aria-label="7">
        <path
           id="path1114"
           style="stroke-width:0.34075704"
           d="m 161.71446,85.798893 h 1.24368 v 0.113784 l -0.70652,1.861562 h -0.27917 l 0.688,-1.750424 h -0.94599 z" />
      </g>
      <g
         transform="matrix(0.35277777,0,0,-0.35277777,139.01161,96.365507)"
         id="g5748">
        <path
           id="path5750"
           style="fill:none;stroke:#231f20;stroke-width:0.5;stroke-linecap:butt;stroke-linejoin:round;stroke-miterlimit:10;stroke-dasharray:none;stroke-opacity:1"
           d="M 0,0 H -24.755" />
      </g>
      <g
         transform="matrix(0.35277777,0,0,-0.35277777,131.00966,96.365507)"
         id="g5752">
        <path
           id="path5754"
           style="fill:#231f20;fill-opacity:1;fill-rule:nonzero;stroke:none"
           d="m 0,0 c 0,-1.144 -0.928,-2.072 -2.072,-2.072 -1.144,0 -2.072,0.928 -2.072,2.072 0,1.144 0.928,2.072 2.072,2.072 C -0.928,2.072 0,1.144 0,0" />
      </g>
      <g
         transform="matrix(0.35277777,0,0,-0.35277777,141.69523,94.953837)"
         id="g5760" />
      <g
         transform="matrix(0.35277777,0,0,-0.35277777,149.40673,95.851897)"
         id="g5768">
        <path
           id="path5770"
           style="fill:#cceef7;fill-opacity:1;fill-rule:nonzero;stroke:none"
           d="m 0,0 -5.191,1.548 -3.346,0.998 h -3.266 -10.121 c -0.435,0 -0.884,-0.344 -0.997,-0.765 l -1.591,-5.941 c -0.113,-0.42 0.151,-0.764 0.586,-0.764 h 12.173 3.376 l 1.38,0.328 6.915,1.648 C 2.965,-2.222 3.002,-0.895 0,0" />
      </g>
      <g
         transform="matrix(0.35277777,0,0,-0.35277777,149.40673,95.851897)"
         id="g5772">
        <path
           id="path5774"
           style="fill:none;stroke:#4f4c4d;stroke-width:0.2;stroke-linecap:butt;stroke-linejoin:miter;stroke-miterlimit:10;stroke-dasharray:none;stroke-opacity:1"
           d="m 0,0 -5.191,1.548 -3.346,0.998 h -3.266 -10.121 c -0.435,0 -0.884,-0.344 -0.997,-0.765 l -1.591,-5.941 c -0.113,-0.42 0.151,-0.764 0.586,-0.764 h 12.173 3.376 l 1.38,0.328 6.915,1.648 C 2.965,-2.222 3.002,-0.895 0,0 Z" />
      </g>
      <g
         id="text5778"
         style="font-variant:normal;font-weight:normal;font-stretch:normal;font-size:2.70965075px;font-family:Consolas;-inkscape-font-specification:Consolas;writing-mode:lr-tb;fill:#231f20;fill-opacity:1;fill-rule:nonzero;stroke:none;stroke-width:0.34075704"
         transform="skewX(-15.000062)"
         aria-label="MOSI">
        <path
           id="path1117"
           style="stroke-width:0.34075704"
           d="m 167.59206,95.229953 h 0.35722 l 0.34136,1.005535 0.344,-1.005535 h 0.35855 v 1.975346 h -0.24742 v -1.745131 l -0.35193,1.041257 h -0.20243 l -0.35326,-1.041257 v 1.745131 h -0.24609 z" />
        <path
           id="path1119"
           style="stroke-width:0.34075704"
           d="m 170.08167,96.219611 q 0,-0.435291 -0.09,-0.621844 -0.0886,-0.186553 -0.2924,-0.186553 -0.20243,0 -0.29239,0.186553 -0.0887,0.186553 -0.0887,0.621844 0,0.433967 0.0887,0.620521 0.09,0.186553 0.29239,0.186553 0.20376,0 0.2924,-0.18523 0.09,-0.186553 0.09,-0.621844 z m 0.27917,0 q 0,0.515998 -0.16406,0.770028 -0.16274,0.254029 -0.49748,0.254029 -0.33473,0 -0.49747,-0.252706 -0.16274,-0.252707 -0.16274,-0.771351 0,-0.517321 0.16274,-0.771351 0.16406,-0.25403 0.49747,-0.25403 0.33474,0 0.49748,0.25403 0.16406,0.25403 0.16406,0.771351 z" />
        <path
           id="path1121"
           style="stroke-width:0.34075704"
           d="m 171.56453,95.29743 v 0.27123 q -0.12172,-0.07806 -0.24476,-0.117754 -0.12173,-0.03969 -0.2461,-0.03969 -0.18919,0 -0.29901,0.08865 -0.10981,0.08732 -0.10981,0.23683 0,0.130984 0.0714,0.199784 0.0728,0.0688 0.26991,0.115107 l 0.14024,0.03175 q 0.27785,0.06483 0.40486,0.203753 0.12702,0.138922 0.12702,0.378398 0,0.281814 -0.17465,0.429998 -0.17464,0.148184 -0.50806,0.148184 -0.13892,0 -0.27916,-0.03043 -0.14025,-0.02911 -0.28182,-0.08865 v -0.28446 q 0.15215,0.09658 0.28711,0.141568 0.13627,0.04498 0.27387,0.04498 0.20243,0 0.31489,-0.08997 0.11247,-0.09129 0.11247,-0.25403 0,-0.148184 -0.0781,-0.226245 -0.0767,-0.07806 -0.26858,-0.1204 l -0.14289,-0.03308 q -0.2752,-0.06218 -0.39957,-0.187877 -0.12437,-0.125691 -0.12437,-0.337383 0,-0.264614 0.17729,-0.423383 0.17862,-0.160092 0.47366,-0.160092 0.11379,0 0.23948,0.02646 0.12569,0.02514 0.26461,0.07674 z" />
        <path
           id="path1123"
           style="stroke-width:0.34075704"
           d="m 171.7488,95.229953 h 1.09683 v 0.224923 h -0.41412 v 1.525501 h 0.41412 v 0.224922 h -1.09683 v -0.224922 h 0.41412 v -1.525501 h -0.41412 z" />
      </g>
      <g
         transform="matrix(0.35277777,0,0,-0.35277777,138.07107,94.920077)"
         id="g5780">
        <path
           id="path5782"
           style="fill:#656263;fill-opacity:1;fill-rule:nonzero;stroke:none"
           d="m 0,0 c -0.435,0 -0.884,-0.344 -0.997,-0.765 l -1.591,-5.94 c -0.113,-0.421 0.151,-0.765 0.586,-0.765 h 7.334 c 0.436,0 0.884,0.344 0.997,0.765 l 1.591,5.94 C 8.033,-0.344 7.769,0 7.334,0 Z" />
      </g>
      <g
         transform="matrix(0.35277777,0,0,-0.35277777,138.07107,94.920077)"
         id="g5784">
        <path
           id="path5786"
           style="fill:none;stroke:#4f4c4d;stroke-width:0.2;stroke-linecap:butt;stroke-linejoin:miter;stroke-miterlimit:10;stroke-dasharray:none;stroke-opacity:1"
           d="m 0,0 c -0.435,0 -0.884,-0.344 -0.997,-0.765 l -1.591,-5.94 c -0.113,-0.421 0.151,-0.765 0.586,-0.765 h 7.334 c 0.436,0 0.884,0.344 0.997,0.765 l 1.591,5.94 C 8.033,-0.344 7.769,0 7.334,0 Z" />
      </g>
      <g
         id="text5790"
         style="font-variant:normal;font-weight:normal;font-stretch:normal;font-size:2.70965075px;font-family:Consolas;-inkscape-font-specification:Consolas;writing-mode:lr-tb;fill:#ffffff;fill-opacity:1;fill-rule:nonzero;stroke:none;stroke-width:0.34075704"
         transform="skewX(-15.000062)"
         aria-label="5">
        <path
           id="path1126"
           style="stroke-width:0.34075704"
           d="m 164.32211,95.19601 h 1.00024 v 0.224922 h -0.7568 V 95.9065 q 0.0569,-0.02117 0.11379,-0.03043 0.0582,-0.01059 0.11643,-0.01059 0.30695,0 0.48689,0.181261 0.17994,0.181261 0.17994,0.49086 0,0.312245 -0.1892,0.492183 -0.18788,0.179937 -0.51468,0.179937 -0.15744,0 -0.28843,-0.02117 -0.12966,-0.02117 -0.23286,-0.06351 v -0.27123 q 0.12172,0.06615 0.24477,0.09923 0.12305,0.03175 0.25138,0.03175 0.22096,0 0.34003,-0.11643 0.1204,-0.116431 0.1204,-0.330768 0,-0.211692 -0.12437,-0.329445 -0.12304,-0.117753 -0.34399,-0.117753 -0.10717,0 -0.20905,0.02514 -0.10188,0.02381 -0.19449,0.07277 z" />
      </g>
      <g
         transform="matrix(0.35277777,0,0,-0.35277777,101.07968,82.783459)"
         id="g5792">
        <path
           id="path5794"
           style="fill:none;stroke:#231f20;stroke-width:0.5;stroke-linecap:butt;stroke-linejoin:round;stroke-miterlimit:10;stroke-dasharray:none;stroke-opacity:1"
           d="M 0,0 H 24.745" />
      </g>
      <g
         transform="matrix(0.35277777,0,0,-0.35277777,109.08163,82.783459)"
         id="g5796">
        <path
           id="path5798"
           style="fill:#231f20;fill-opacity:1;fill-rule:nonzero;stroke:none"
           d="M 0,0 C 0,1.144 0.928,2.072 2.072,2.072 3.216,2.072 4.144,1.144 4.144,0 4.144,-1.144 3.216,-2.072 2.072,-2.072 0.928,-2.072 0,-1.144 0,0" />
      </g>
      <g
         transform="matrix(0.35277777,0,0,-0.35277777,90.684519,83.187)"
         id="g5812">
        <path
           id="path5814"
           style="fill:#fee502;fill-opacity:1;fill-rule:nonzero;stroke:none"
           d="m 0,0 5.191,-1.548 3.346,-0.998 h 3.266 10.121 c 0.435,0 0.884,0.344 0.997,0.765 l 1.591,5.94 C 24.625,4.58 24.361,4.924 23.926,4.924 H 11.753 8.377 L 6.997,4.596 0.082,2.948 C -2.965,2.222 -3.002,0.895 0,0" />
      </g>
      <g
         transform="matrix(0.35277777,0,0,-0.35277777,90.684519,83.187)"
         id="g5816">
        <path
           id="path5818"
           style="fill:none;stroke:#4f4c4d;stroke-width:0.2;stroke-linecap:butt;stroke-linejoin:miter;stroke-miterlimit:10;stroke-dasharray:none;stroke-opacity:1"
           d="m 0,0 5.191,-1.548 3.346,-0.998 h 3.266 10.121 c 0.435,0 0.884,0.344 0.997,0.765 l 1.591,5.94 C 24.625,4.58 24.361,4.924 23.926,4.924 H 11.753 8.377 L 6.997,4.596 0.082,2.948 C -2.965,2.222 -3.002,0.895 0,0 Z" />
      </g>
      <g
         id="text5822"
         style="font-variant:normal;font-weight:normal;font-stretch:normal;font-size:2.37938023px;font-family:Consolas;-inkscape-font-specification:Consolas;writing-mode:lr-tb;fill:#231f20;fill-opacity:1;fill-rule:nonzero;stroke:none;stroke-width:0.34075761"
         transform="skewX(-14.999708)"
         aria-label="RESET">
        <path
           id="path1129"
           style="stroke-width:0.34075761"
           d="m 115.93451,82.649447 q 0.0906,0.02324 0.15452,0.0883 0.0639,0.0639 0.15917,0.256759 l 0.23584,0.474017 h -0.25211 l -0.2068,-0.438001 q -0.0895,-0.187051 -0.16149,-0.240494 -0.0709,-0.0546 -0.18589,-0.0546 h -0.22423 v 0.7331 h -0.23585 v -1.734577 h 0.48332 q 0.2858,0 0.438,0.12896 0.15219,0.128961 0.15219,0.37294 0,0.171948 -0.0941,0.281157 -0.093,0.108048 -0.26257,0.132446 z m -0.48099,-0.722643 v 0.615757 h 0.25676 q 0.16846,0 0.25095,-0.07552 0.0825,-0.07552 0.0825,-0.2312 0,-0.149873 -0.0883,-0.228876 -0.0871,-0.08016 -0.25443,-0.08016 z" />
        <path
           id="path1131"
           style="stroke-width:0.34075761"
           d="m 116.42868,81.733944 h 1.02936 v 0.197507 h -0.79467 v 0.513518 h 0.75982 v 0.197508 h -0.75982 v 0.628537 h 0.81675 v 0.197507 h -1.05144 z" />
        <path
           id="path1133"
           style="stroke-width:0.34075761"
           d="m 118.51409,81.793196 v 0.23817 q -0.10689,-0.06855 -0.21494,-0.103401 -0.10688,-0.03485 -0.21609,-0.03485 -0.16614,0 -0.26257,0.07784 -0.0964,0.07668 -0.0964,0.207964 0,0.115018 0.0627,0.175432 0.0639,0.06041 0.23701,0.101078 l 0.12315,0.02788 q 0.24398,0.05693 0.35551,0.178918 0.11153,0.12199 0.11153,0.332277 0,0.247465 -0.15335,0.377587 -0.15336,0.130123 -0.44614,0.130123 -0.12199,0 -0.24514,-0.02672 -0.12315,-0.02556 -0.24746,-0.07784 v -0.249789 q 0.1336,0.08481 0.25211,0.124314 0.11966,0.0395 0.24049,0.0395 0.17776,0 0.27651,-0.079 0.0988,-0.08016 0.0988,-0.223067 0,-0.130122 -0.0686,-0.198669 -0.0674,-0.06855 -0.23585,-0.105724 l -0.12547,-0.02904 q -0.24166,-0.0546 -0.35087,-0.164977 -0.10921,-0.110371 -0.10921,-0.29626 0,-0.232362 0.15568,-0.371779 0.15685,-0.140578 0.41593,-0.140578 0.0999,0 0.21029,0.02324 0.11037,0.02207 0.23236,0.06739 z" />
        <path
           id="path1135"
           style="stroke-width:0.34075761"
           d="m 118.68627,81.733944 h 1.02936 v 0.197507 h -0.79468 v 0.513518 h 0.75982 v 0.197508 h -0.75982 v 0.628537 h 0.81675 v 0.197507 h -1.05143 z" />
        <path
           id="path1137"
           style="stroke-width:0.34075761"
           d="m 119.66458,81.733944 h 1.32329 v 0.197507 h -0.54256 v 1.53707 h -0.23585 v -1.53707 h -0.54488 z" />
      </g>
      <g
         transform="matrix(0.35277777,0,0,-0.35277777,102.02018,84.118828)"
         id="g5824">
        <path
           id="path5826"
           style="fill:#656263;fill-opacity:1;fill-rule:nonzero;stroke:none"
           d="m 0,0 c 0.435,0 0.884,0.344 0.997,0.765 l 1.591,5.94 C 2.701,7.126 2.437,7.47 2.002,7.47 h -7.334 c -0.436,0 -0.884,-0.344 -0.997,-0.765 L -7.92,0.765 C -8.033,0.344 -7.769,0 -7.334,0 Z" />
      </g>
      <g
         transform="matrix(0.35277777,0,0,-0.35277777,102.02018,84.118828)"
         id="g5828">
        <path
           id="path5830"
           style="fill:none;stroke:#4f4c4d;stroke-width:0.2;stroke-linecap:butt;stroke-linejoin:miter;stroke-miterlimit:10;stroke-dasharray:none;stroke-opacity:1"
           d="m 0,0 c 0.435,0 0.884,0.344 0.997,0.765 l 1.591,5.94 C 2.701,7.126 2.437,7.47 2.002,7.47 h -7.334 c -0.436,0 -0.884,-0.344 -0.997,-0.765 L -7.92,0.765 C -8.033,0.344 -7.769,0 -7.334,0 Z" />
      </g>
      <g
         id="text5834"
         style="font-variant:normal;font-weight:normal;font-stretch:normal;font-size:2.70965075px;font-family:Consolas;-inkscape-font-specification:Consolas;writing-mode:lr-tb;fill:#ffffff;fill-opacity:1;fill-rule:nonzero;stroke:none;stroke-width:0.34075704"
         transform="skewX(-15.000062)"
         aria-label="1">
        <path
           id="path1140"
           style="stroke-width:0.34075704"
           d="m 122.94613,83.374054 h 0.41544 v -1.509625 l -0.4472,0.100554 v -0.243446 l 0.44456,-0.09791 h 0.26726 v 1.750424 h 0.41015 v 0.224922 h -1.09021 z" />
      </g>
    </g>
  </g>
</svg>
