<?xml version="1.0" encoding="UTF-8"?>
<svg version="1.1" viewBox="0 0 500 500" xmlns="http://www.w3.org/2000/svg" xmlns:cc="http://creativecommons.org/ns#" xmlns:dc="http://purl.org/dc/elements/1.1/" xmlns:rdf="http://www.w3.org/1999/02/22-rdf-syntax-ns#" xmlns:xlink="http://www.w3.org/1999/xlink">
<title>Citroner Bloggen</title>
<defs>
<radialGradient id="a" cx="744.61" cy="-18.938" r="217.76" gradientTransform="matrix(2.5933 .022826 -.01295 1.4712 -1677.8 268.58)" gradientUnits="userSpaceOnUse">
<stop stop-color="#ffee7f" offset="0"/>
<stop stop-color="#ffd87f" stop-opacity="0" offset="1"/>
</radialGradient>
</defs>
<metadata>
<rdf:RDF>
<cc:Work rdf:about="">
<dc:format>image/svg+xml</dc:format>
<dc:type rdf:resource="http://purl.org/dc/dcmitype/StillImage"/>
<dc:title>Citroner Bloggen</dc:title>
<dc:date>1 november 2017</dc:date>
<dc:creator>
<cc:Agent>
<dc:title>Charlie Habolin</dc:title>
</cc:Agent>
</dc:creator>
<dc:publisher>
<cc:Agent>
<dc:title>Citroner Bloggen</dc:title>
</cc:Agent>
</dc:publisher>
<dc:rights>
<cc:Agent>
<dc:title>Copyright</dc:title>
</cc:Agent>
</dc:rights>
<dc:description>Graphics of a lemon</dc:description>
</cc:Work>
</rdf:RDF>
</metadata>
<g transform="matrix(3.9544 0 0 3.9544 -8.7434 -659.17)">
<g transform="matrix(.26458 0 0 .26458 -.78317 163.76)" stroke-width=".68848">
<path d="m462.5 127.5s-10.332-37.571-69.506-22.542c0 0-94.866-75.141-241.39 18.785 0 0-110.83 58.234-89.23 165.31 0 0-8.4532 16.907-6.575 23.482 0 0-28.178 23.481-17.846 46.964 0 0-7.5141 14.089 7.5134 10.332 0 0 15.028 10.332 46.964 6.575l19.724 8.4532s81.716 102.38 223.55 25.36c0 0 138.07-54.478 116.47-208.52 0-7e-4 34.753-37.571 10.332-74.203zm-285.54 278.26c-3.6311 0-6.575-1.419-6.575-3.1698 0-1.7508 2.9433-3.1705 6.575-3.1705 3.6318 0 6.575 1.4196 6.575 3.1705 0 1.7508-2.9433 3.1698-6.575 3.1698zm11.741-20.899c-2.8531 0-5.1657-1.9973-5.1657-4.4614 0-2.4641 2.3126-4.4614 5.1657-4.4614s5.1657 1.9973 5.1657 4.4614c0 2.4641-2.3126 4.4614-5.1657 4.4614zm20.194 27.238c-3.6311 0-6.575-2.8386-6.575-6.3402 0-3.5016 2.9433-6.3396 6.575-6.3396 3.6311 0 6.575 2.8379 6.575 6.3396 0 3.5016-2.9433 6.3402-6.575 6.3402zm3.2875-19.724c-1.8155 0-3.2875-1.682-3.2875-3.7571 0-2.0751 1.472-3.7571 3.2875-3.7571 1.8155 0 3.2875 1.682 3.2875 3.7571 0 2.0744-1.472 3.7571-3.2875 3.7571zm13.15 19.724c-2.8531 0-5.1657-1.419-5.1657-3.1705 0-1.7508 2.3126-3.1691 5.1657-3.1691s5.1657 1.4183 5.1657 3.1691c0 1.7515-2.3126 3.1705-5.1657 3.1705zm21.061-47.903c-3.5911 0-6.502-1.2613-6.502-2.818 0-1.5567 2.9116-2.818 6.502-2.818 3.5911 0 6.502 1.2613 6.502 2.818 0 1.5567-2.9109 2.818-6.502 2.818zm26.842 28.178c-4.409 0-7.9837-1.682-7.9837-3.7571 0-2.0751 3.5746-3.7571 7.9837-3.7571s7.9837 1.682 7.9837 3.7571c0 2.0744-3.5746 3.7571-7.9837 3.7571zm21.603 10.331c-1.8155 0-3.2875-1.472-3.2875-3.2868 0-1.8162 1.472-3.2875 3.2875-3.2875 1.8155 0 3.2875 1.472 3.2875 3.2875 0 1.8155-1.472 3.2868-3.2875 3.2868zm3.2875-22.542c-3.6311 0-6.575-1.8926-6.575-4.2273 0-2.334 2.9433-4.2266 6.575-4.2266 3.6311 0 6.575 1.8926 6.575 4.2266 0 2.3347-2.944 4.2273-6.575 4.2273zm15.967-26.299c-2.5935 0-4.6962-1.8926-4.6962-4.2273 0-2.334 2.1026-4.2266 4.6962-4.2266 2.5935 0 4.6962 1.8926 4.6962 4.2266 0 2.3346-2.1026 4.2273-4.6962 4.2273zm7.0446 42.267c-1.2971 0-2.3484-1.682-2.3484-3.7571s1.0513-3.7571 2.3484-3.7571c1.2971 0 2.3484 1.682 2.3484 3.7571s-1.0513 3.7571-2.3484 3.7571zm7.5141-24.421c-2.8531 0-5.1657-0.84133-5.1657-1.8782 0-1.0369 2.3126-1.8789 5.1657-1.8789 2.8531 0 5.1657 0.84134 5.1657 1.8789 0 1.0375-2.3126 1.8782-5.1657 1.8782z" fill="#ffe17f"/>
<path d="m462.5 127.5s-10.332-37.571-69.506-22.542c0 0-94.866-75.141-241.39 18.785 0 0-110.83 58.234-89.23 165.31 0 0-8.4532 16.907-6.575 23.482 0 0-28.178 23.481-17.846 46.964 0 0-7.5141 14.089 7.5134 10.332 0 0 15.028 10.332 46.964 6.575l19.724 8.4532s81.716 102.38 223.55 25.36c0 0 138.07-54.478 116.47-208.52 0-7e-4 34.753-37.571 10.332-74.203zm-285.54 278.26c-3.6311 0-6.575-1.419-6.575-3.1698 0-1.7508 2.9433-3.1705 6.575-3.1705 3.6318 0 6.575 1.4196 6.575 3.1705 0 1.7508-2.9433 3.1698-6.575 3.1698zm11.741-20.899c-2.8531 0-5.1657-1.9973-5.1657-4.4614 0-2.4641 2.3126-4.4614 5.1657-4.4614s5.1657 1.9973 5.1657 4.4614c0 2.4641-2.3126 4.4614-5.1657 4.4614zm20.194 27.239c-3.6311 0-6.575-2.8386-6.575-6.3402 0-3.5016 2.9433-6.3396 6.575-6.3396 3.6311 0 6.575 2.8379 6.575 6.3396 0 3.5016-2.9433 6.3402-6.575 6.3402zm3.2875-19.724c-1.8155 0-3.2875-1.682-3.2875-3.7571s1.472-3.7571 3.2875-3.7571c1.8155 0 3.2875 1.682 3.2875 3.7571 0 2.0744-1.472 3.7571-3.2875 3.7571zm13.15 19.724c-2.8531 0-5.1657-1.419-5.1657-3.1705 0-1.7508 2.3126-3.1691 5.1657-3.1691s5.1657 1.4183 5.1657 3.1691c0 1.7515-2.3126 3.1705-5.1657 3.1705zm21.061-47.903c-3.5911 0-6.502-1.2613-6.502-2.818 0-1.5567 2.9116-2.818 6.502-2.818 3.5911 0 6.502 1.2613 6.502 2.818 0 1.5566-2.9109 2.818-6.502 2.818zm26.842 28.178c-4.409 0-7.9837-1.682-7.9837-3.7571s3.5746-3.7571 7.9837-3.7571 7.9837 1.682 7.9837 3.7571c0 2.0744-3.5746 3.7571-7.9837 3.7571zm21.603 10.331c-1.8155 0-3.2875-1.472-3.2875-3.2868 0-1.8162 1.472-3.2875 3.2875-3.2875 1.8155 0 3.2875 1.472 3.2875 3.2875 0 1.8155-1.472 3.2868-3.2875 3.2868zm3.2875-22.542c-3.6311 0-6.575-1.8926-6.575-4.2273 0-2.334 2.9433-4.2266 6.575-4.2266 3.6311 0 6.575 1.8926 6.575 4.2266 0 2.3347-2.944 4.2273-6.575 4.2273zm15.967-26.299c-2.5935 0-4.6962-1.8926-4.6962-4.2273 0-2.334 2.1026-4.2266 4.6962-4.2266 2.5935 0 4.6962 1.8926 4.6962 4.2266 0 2.3346-2.1026 4.2273-4.6962 4.2273zm7.0446 42.267c-1.2971 0-2.3484-1.682-2.3484-3.7571s1.0513-3.7571 2.3484-3.7571c1.2971 0 2.3484 1.682 2.3484 3.7571s-1.0513 3.7571-2.3484 3.7571zm7.5141-24.421c-2.8531 0-5.1657-0.84133-5.1657-1.8782 0-1.0369 2.3126-1.8789 5.1657-1.8789 2.8531 0 5.1657 0.84134 5.1657 1.8789 0 1.0375-2.3126 1.8782-5.1657 1.8782z" fill="url(#a)"/>
</g>
</g>
</svg>
