<svg version="1.1" viewBox="0 0 500 500" xmlns="http://www.w3.org/2000/svg">
 <defs>
  <radialGradient id="a" cx="253.32" cy="258.03" r="227.84" gradientTransform="matrix(1.4543 0 0 1.4654 -115.08 -120.1)" gradientUnits="userSpaceOnUse">
   <stop stop-color="#ffe67f" offset="0"/>
   <stop stop-color="#ffe67f" stop-opacity="0" offset="1"/>
  </radialGradient>
 </defs>
 <path d="m472.05 121.8s-10.81-39.309-72.721-23.585c0 0-99.254-78.617-252.56 19.654 0 0-115.96 60.928-93.357 172.96 0 0-8.8442 17.689-6.8791 24.568 0 0-29.481 24.567-18.671 49.136 0 0-7.8617 14.741 7.8609 10.81 0 0 15.723 10.81 49.136 6.8791l20.636 8.8442s85.496 107.12 233.89 26.533c0 0 144.46-56.998 121.86-218.17 0-.00073 36.361-39.309 10.81-77.635zm-298.75 291.13c-3.799 0-6.8791-1.4846-6.8791-3.3164 0-1.8318 3.0794-3.3172 6.8791-3.3172 3.7998 0 6.8791 1.4853 6.8791 3.3172 0 1.8318-3.0794 3.3164-6.8791 3.3164zm12.284-21.866c-2.9851 0-5.4046-2.0897-5.4046-4.6678 0-2.5781 2.4196-4.6678 5.4046-4.6678 2.9851 0 5.4046 2.0897 5.4046 4.6678 0 2.5781-2.4196 4.6678-5.4046 4.6678zm21.128 28.498c-3.799 0-6.8791-2.9699-6.8791-6.6335s3.0794-6.6328 6.8791-6.6328c3.7991 0 6.8791 2.9692 6.8791 6.6328 0 3.6636-3.0794 6.6335-6.8791 6.6335zm3.4396-20.636c-1.8995 0-3.4396-1.7598-3.4396-3.9309 0-2.1711 1.5401-3.9309 3.4396-3.9309 1.8995 0 3.4396 1.7598 3.4396 3.9309 0 2.1704-1.5401 3.9309-3.4396 3.9309zm13.758 20.636c-2.9851 0-5.4046-1.4846-5.4046-3.3172 0-1.8318 2.4196-3.3157 5.4046-3.3157s5.4046 1.4839 5.4046 3.3157c0 1.8325-2.4196 3.3172-5.4046 3.3172zm22.035-50.119c-3.7572 0-6.8028-1.3196-6.8028-2.9483 0-1.6287 3.0463-2.9484 6.8028-2.9484 3.7572 0 6.8028 1.3196 6.8028 2.9484 0 1.6287-3.0455 2.9483-6.8028 2.9483zm28.084 29.481c-4.6129 0-8.353-1.7598-8.353-3.9309 0-2.1711 3.7399-3.9309 8.353-3.9309 4.613 0 8.353 1.7598 8.353 3.9309 0 2.1704-3.7399 3.9309-8.353 3.9309zm22.602 10.809c-1.8995 0-3.4396-1.5401-3.4396-3.4388 0-1.9002 1.5401-3.4396 3.4396-3.4396 1.8995 0 3.4396 1.5401 3.4396 3.4396 0 1.8995-1.5401 3.4388-3.4396 3.4388zm3.4396-23.585c-3.7991 0-6.8791-1.9801-6.8791-4.4228 0-2.442 3.0794-4.4221 6.8791-4.4221 3.7991 0 6.8791 1.9802 6.8791 4.4221 0 2.4427-3.0802 4.4228-6.8791 4.4228zm16.706-27.515c-2.7135 0-4.9134-1.9801-4.9134-4.4228 0-2.442 2.1999-4.4221 4.9134-4.4221 2.7135 0 4.9134 1.9801 4.9134 4.4221 0 2.4426-2.1998 4.4228-4.9134 4.4228zm7.3704 44.222c-1.3571 0-2.457-1.7598-2.457-3.9309 0-2.1711 1.0999-3.9309 2.457-3.9309 1.3571 0 2.457 1.7598 2.457 3.9309 0 2.1711-1.0999 3.9309-2.457 3.9309zm7.8617-25.551c-2.9851 0-5.4046-.88024-5.4046-1.9651 0-1.0849 2.4196-1.9658 5.4046-1.9658s5.4046.88026 5.4046 1.9658c0 1.0855-2.4196 1.9651-5.4046 1.9651z" fill="#ffcd7f" stroke-width=".72033"/>
 <path d="m472.05 121.8s-10.81-39.309-72.721-23.585c0 0-99.254-78.617-252.56 19.654 0 0-115.96 60.928-93.357 172.96 0 0-8.8442 17.689-6.8791 24.568 0 0-29.481 24.567-18.671 49.136 0 0-7.8617 14.741 7.8609 10.81 0 0 15.723 10.81 49.136 6.8791l20.636 8.8442s85.496 107.12 233.89 26.533c0 0 144.46-56.998 121.86-218.17 0-.00073 36.361-39.309 10.81-77.635zm-298.75 291.13c-3.799 0-6.8791-1.4846-6.8791-3.3164 0-1.8318 3.0794-3.3172 6.8791-3.3172 3.7998 0 6.8791 1.4853 6.8791 3.3172 0 1.8318-3.0794 3.3164-6.8791 3.3164zm12.284-21.866c-2.9851 0-5.4046-2.0897-5.4046-4.6678 0-2.5781 2.4196-4.6678 5.4046-4.6678 2.9851 0 5.4046 2.0897 5.4046 4.6678 0 2.5781-2.4196 4.6678-5.4046 4.6678zm21.128 28.499c-3.799 0-6.8791-2.9699-6.8791-6.6335 0-3.6636 3.0794-6.6328 6.8791-6.6328 3.7991 0 6.8791 2.9692 6.8791 6.6328 0 3.6636-3.0794 6.6335-6.8791 6.6335zm3.4396-20.636c-1.8995 0-3.4396-1.7598-3.4396-3.9309 0-2.1711 1.5401-3.9309 3.4396-3.9309 1.8995 0 3.4396 1.7598 3.4396 3.9309 0 2.1704-1.5401 3.9309-3.4396 3.9309zm13.758 20.636c-2.9851 0-5.4046-1.4846-5.4046-3.3172 0-1.8318 2.4196-3.3157 5.4046-3.3157s5.4046 1.4839 5.4046 3.3157c0 1.8325-2.4196 3.3172-5.4046 3.3172zm22.035-50.119c-3.7572 0-6.8028-1.3196-6.8028-2.9484 0-1.6287 3.0463-2.9484 6.8028-2.9484 3.7572 0 6.8028 1.3196 6.8028 2.9484 0 1.6286-3.0455 2.9484-6.8028 2.9484zm28.084 29.481c-4.6129 0-8.353-1.7598-8.353-3.9309 0-2.1711 3.7399-3.9309 8.353-3.9309 4.613 0 8.353 1.7598 8.353 3.9309 0 2.1704-3.7399 3.9309-8.353 3.9309zm22.602 10.809c-1.8995 0-3.4396-1.5401-3.4396-3.4388 0-1.9002 1.5401-3.4396 3.4396-3.4396 1.8995 0 3.4396 1.5401 3.4396 3.4396s-1.5401 3.4388-3.4396 3.4388zm3.4396-23.585c-3.7991 0-6.8791-1.9802-6.8791-4.4228 0-2.442 3.0794-4.4221 6.8791-4.4221 3.7991 0 6.8791 1.9801 6.8791 4.4221 0 2.4427-3.0802 4.4228-6.8791 4.4228zm16.706-27.515c-2.7135 0-4.9134-1.9801-4.9134-4.4228 0-2.442 2.1999-4.4221 4.9134-4.4221 2.7135 0 4.9134 1.9802 4.9134 4.4221 0 2.4426-2.1998 4.4228-4.9134 4.4228zm7.3704 44.222c-1.3571 0-2.457-1.7598-2.457-3.9309 0-2.1711 1.0999-3.9309 2.457-3.9309 1.3571 0 2.457 1.7598 2.457 3.9309 0 2.1711-1.0999 3.9309-2.457 3.9309zm7.8617-25.551c-2.9851 0-5.4046-.88025-5.4046-1.9651 0-1.0849 2.4196-1.9658 5.4046-1.9658s5.4046.88025 5.4046 1.9658c0 1.0855-2.4196 1.9651-5.4046 1.9651z" fill="url(#a)" stroke-width=".72033"/>
</svg>
