<?xml version="1.0" encoding="UTF-8" standalone="no"?>
<svg
   xmlns:dc="http://purl.org/dc/elements/1.1/"
   xmlns:cc="http://creativecommons.org/ns#"
   xmlns:rdf="http://www.w3.org/1999/02/22-rdf-syntax-ns#"
   xmlns:svg="http://www.w3.org/2000/svg"
   xmlns="http://www.w3.org/2000/svg"
   xmlns:xlink="http://www.w3.org/1999/xlink"
   xmlns:sodipodi="http://sodipodi.sourceforge.net/DTD/sodipodi-0.dtd"
   xmlns:inkscape="http://www.inkscape.org/namespaces/inkscape"
   id="svg835"
   version="1.1"
   viewBox="0 0 500 500"
   height="500"
   width="500"
   sodipodi:docname="citroner.svg"
   inkscape:version="0.92.2 (5c3e80d, 2017-08-06)">
  <title
     id="title1383">Citroner Bloggen </title>
  <defs
     id="defs829">
    <radialGradient
       xlink:href="#linearGradient966"
       id="radialGradient968"
       cx="744.60675"
       cy="-18.938232"
       fx="744.60675"
       fy="-18.938232"
       r="217.76239"
       gradientTransform="matrix(2.5932639,0.02282605,-0.01294975,1.4712199,-1677.7713,268.58203)"
       gradientUnits="userSpaceOnUse" />
    <linearGradient
       id="linearGradient966">
      <stop
         style="stop-color:#ffee7f;stop-opacity:1"
         offset="0"
         id="stop962" />
      <stop
         style="stop-color:#ffd87f;stop-opacity:0;"
         offset="1"
         id="stop964" />
    </linearGradient>
  </defs>
  <metadata
     id="metadata832">
    <rdf:RDF>
      <cc:Work
         rdf:about="">
        <dc:format>image/svg+xml</dc:format>
        <dc:type
           rdf:resource="http://purl.org/dc/dcmitype/StillImage" />
        <dc:title>Citroner Bloggen </dc:title>
        <dc:date>1 november 2017</dc:date>
        <dc:creator>
          <cc:Agent>
            <dc:title>Charlie Habolin</dc:title>
          </cc:Agent>
        </dc:creator>
        <dc:publisher>
          <cc:Agent>
            <dc:title>Citroner Bloggen</dc:title>
          </cc:Agent>
        </dc:publisher>
        <dc:rights>
          <cc:Agent>
            <dc:title>Copyright</dc:title>
          </cc:Agent>
        </dc:rights>
        <dc:description>Graphics of a lemon</dc:description>
      </cc:Work>
    </rdf:RDF>
  </metadata>
  <g
     transform="matrix(3.954366,0,0,3.954366,-8.7434267,-659.17052)"
     id="layer1">
    <g
       transform="matrix(0.26458333,0,0,0.26458333,-0.78316863,163.76453)"
       id="g827">
      <path
         style="fill:#ffe17f;fill-opacity:1;stroke-width:0.68848437"
         id="path4"
         d="m 462.49957,127.5044 c 0,0 -10.33209,-37.570599 -69.50595,-22.54236 0,0 -94.86626,-75.141187 -241.39225,18.7853 0,0 -110.833583,58.23407 -89.230328,165.31129 0,0 -8.45321,16.90711 -6.575019,23.48214 0,0 -28.177603,23.48145 -17.845515,46.96358 0,0 -7.514122,14.08915 7.513427,10.3321 0,0 15.028236,10.33207 46.963579,6.57502 l 19.724386,8.45321 c 0,0 81.71621,102.38038 223.54606,25.36032 0,0 138.07278,-54.47839 116.46952,-208.51782 0,-7e-4 34.75263,-37.57128 10.33209,-74.20278 z M 176.961,405.76363 c -3.63107,0 -6.57504,-1.41898 -6.57504,-3.16979 0,-1.75082 2.94327,-3.17047 6.57504,-3.17047 3.63175,0 6.57502,1.41965 6.57502,3.17047 0,1.75081 -2.94327,3.16979 -6.57502,3.16979 z m 11.74141,-20.89895 c -2.85308,0 -5.1657,-1.9973 -5.1657,-4.46139 0,-2.46407 2.31262,-4.46137 5.1657,-4.46137 2.85308,0 5.1657,1.9973 5.1657,4.46137 0,2.46409 -2.31262,4.46139 -5.1657,4.46139 z m 20.19393,27.2385 c -3.63106,0 -6.57502,-2.83861 -6.57502,-6.34025 0,-3.50163 2.94327,-6.33956 6.57502,-6.33956 3.63107,0 6.57503,2.83793 6.57503,6.33956 0,3.50164 -2.94327,6.34025 -6.57503,6.34025 z m 3.28751,-19.72438 c -1.81552,0 -3.28751,-1.68196 -3.28751,-3.75706 0,-2.07509 1.47199,-3.75706 3.28751,-3.75706 1.81554,0 3.28752,1.68197 3.28752,3.75706 0,2.07439 -1.47198,3.75706 -3.28752,3.75706 z m 13.15006,19.72438 c -2.85308,0 -5.1657,-1.41896 -5.1657,-3.17046 0,-1.75082 2.31262,-3.16909 5.1657,-3.16909 2.85308,0 5.1657,1.41827 5.1657,3.16909 0,1.7515 -2.31262,3.17046 -5.1657,3.17046 z m 21.06073,-47.90267 c -3.59114,0 -6.50205,-1.2613 -6.50205,-2.81796 0,-1.55667 2.91161,-2.81798 6.50205,-2.81798 3.59114,0 6.50205,1.26131 6.50205,2.81798 0,1.55666 -2.91091,2.81796 -6.50205,2.81796 z m 26.84195,28.17829 c -4.40905,0 -7.98367,-1.68196 -7.98367,-3.75706 0,-2.07509 3.57462,-3.75706 7.98367,-3.75706 4.40905,0 7.98366,1.68197 7.98366,3.75706 0,2.07439 -3.57461,3.75706 -7.98366,3.75706 z m 21.60326,10.3314 c -1.81553,0 -3.28751,-1.47199 -3.28751,-3.28683 0,-1.81622 1.47198,-3.28751 3.28751,-3.28751 1.81554,0 3.28751,1.47197 3.28751,3.28751 0,1.81553 -1.47197,3.28683 -3.28751,3.28683 z m 3.28751,-22.54236 c -3.63107,0 -6.57502,-1.89264 -6.57502,-4.2273 0,-2.33397 2.94326,-4.22661 6.57502,-4.22661 3.63107,0 6.57502,1.89264 6.57502,4.22661 0,2.33466 -2.94395,4.2273 -6.57502,4.2273 z m 15.96733,-26.29941 c -2.59351,0 -4.69616,-1.89265 -4.69616,-4.2273 0,-2.33397 2.10265,-4.22661 4.69616,-4.22661 2.59352,0 4.69615,1.89264 4.69615,4.22661 0,2.33465 -2.10263,4.2273 -4.69615,4.2273 z m 7.04457,42.26743 c -1.2971,0 -2.34842,-1.68197 -2.34842,-3.75706 0,-2.07509 1.05132,-3.75706 2.34842,-3.75706 1.29711,0 2.34842,1.68197 2.34842,3.75706 0,2.07509 -1.05131,3.75706 -2.34842,3.75706 z m 7.51412,-24.42123 c -2.85308,0 -5.1657,-0.84133 -5.1657,-1.87818 0,-1.03687 2.31262,-1.87889 5.1657,-1.87889 2.85307,0 5.16569,0.84134 5.16569,1.87889 0,1.03754 -2.31262,1.87818 -5.16569,1.87818 z"
         inkscape:connector-curvature="0" />
      <path
         style="fill:url(#radialGradient968);fill-opacity:1;stroke-width:0.68848437"
         id="path4-5"
         d="m 462.49963,127.50441 c 0,0 -10.3321,-37.57059 -69.50601,-22.54236 0,0 -94.86626,-75.14117 -241.39225,18.7853 0,0 -110.83358,58.23407 -89.23033,165.31129 0,0 -8.45321,16.90711 -6.57502,23.48214 0,0 -28.1776,23.48145 -17.84551,46.96358 0,0 -7.51412,14.08914 7.51343,10.33209 0,0 15.02823,10.33207 46.96358,6.57502 l 19.72438,8.45321 c 0,0 81.71621,102.38039 223.54606,25.36033 0,0 138.07277,-54.47839 116.46957,-208.51782 0,-7e-4 34.7526,-37.57128 10.3321,-74.20278 z M 176.961,405.76364 c -3.63107,0 -6.57504,-1.41898 -6.57504,-3.16979 0,-1.75082 2.94327,-3.17047 6.57504,-3.17047 3.63175,0 6.57502,1.41965 6.57502,3.17047 0,1.75081 -2.94327,3.16979 -6.57502,3.16979 z m 11.74141,-20.89896 c -2.85308,0 -5.1657,-1.9973 -5.1657,-4.46139 0,-2.46407 2.31262,-4.46137 5.1657,-4.46137 2.85308,0 5.1657,1.9973 5.1657,4.46137 0,2.46409 -2.31262,4.46139 -5.1657,4.46139 z m 20.19393,27.23851 c -3.63106,0 -6.57502,-2.83861 -6.57502,-6.34025 0,-3.50163 2.94327,-6.33956 6.57502,-6.33956 3.63107,0 6.57503,2.83793 6.57503,6.33956 0,3.50164 -2.94327,6.34025 -6.57503,6.34025 z m 3.28751,-19.72438 c -1.81552,0 -3.28751,-1.68196 -3.28751,-3.75706 0,-2.0751 1.47199,-3.75707 3.28751,-3.75707 1.81554,0 3.28752,1.68197 3.28752,3.75707 0,2.07439 -1.47198,3.75706 -3.28752,3.75706 z m 13.15006,19.72438 c -2.85308,0 -5.1657,-1.41896 -5.1657,-3.17046 0,-1.75082 2.31262,-3.16909 5.1657,-3.16909 2.85308,0 5.1657,1.41827 5.1657,3.16909 0,1.7515 -2.31262,3.17046 -5.1657,3.17046 z m 21.06073,-47.90268 c -3.59114,0 -6.50205,-1.2613 -6.50205,-2.81795 0,-1.55667 2.91161,-2.81798 6.50205,-2.81798 3.59114,0 6.50205,1.26131 6.50205,2.81798 0,1.55665 -2.91091,2.81795 -6.50205,2.81795 z m 26.84195,28.1783 c -4.40905,0 -7.98367,-1.68196 -7.98367,-3.75706 0,-2.0751 3.57462,-3.75707 7.98367,-3.75707 4.40905,0 7.98366,1.68197 7.98366,3.75707 0,2.07439 -3.57461,3.75706 -7.98366,3.75706 z m 21.60326,10.3314 c -1.81553,0 -3.28751,-1.47199 -3.28751,-3.28683 0,-1.81622 1.47198,-3.28751 3.28751,-3.28751 1.81554,0 3.28751,1.47197 3.28751,3.28751 0,1.81553 -1.47197,3.28683 -3.28751,3.28683 z m 3.28751,-22.54237 c -3.63107,0 -6.57502,-1.89264 -6.57502,-4.2273 0,-2.33397 2.94326,-4.22661 6.57502,-4.22661 3.63107,0 6.57502,1.89264 6.57502,4.22661 0,2.33466 -2.94395,4.2273 -6.57502,4.2273 z m 15.96733,-26.2994 c -2.59351,0 -4.69616,-1.89265 -4.69616,-4.2273 0,-2.33397 2.10265,-4.22661 4.69616,-4.22661 2.59352,0 4.69615,1.89264 4.69615,4.22661 0,2.33465 -2.10263,4.2273 -4.69615,4.2273 z m 7.04457,42.26743 c -1.2971,0 -2.34842,-1.68197 -2.34842,-3.75706 0,-2.07509 1.05132,-3.75706 2.34842,-3.75706 1.29711,0 2.34842,1.68197 2.34842,3.75706 0,2.07509 -1.05131,3.75706 -2.34842,3.75706 z m 7.51412,-24.42124 c -2.85308,0 -5.1657,-0.84133 -5.1657,-1.87818 0,-1.03687 2.31262,-1.87889 5.1657,-1.87889 2.85307,0 5.16569,0.84134 5.16569,1.87889 0,1.03754 -2.31262,1.87818 -5.16569,1.87818 z"
         inkscape:connector-curvature="0" />
    </g>
  </g>
</svg>
