<?xml version="1.0" encoding="UTF-8" standalone="no"?>
<svg
   xmlns:dc="http://purl.org/dc/elements/1.1/"
   xmlns:cc="http://creativecommons.org/ns#"
   xmlns:rdf="http://www.w3.org/1999/02/22-rdf-syntax-ns#"
   xmlns:svg="http://www.w3.org/2000/svg"
   xmlns="http://www.w3.org/2000/svg"
   xmlns:sodipodi="http://sodipodi.sourceforge.net/DTD/sodipodi-0.dtd"
   xmlns:inkscape="http://www.inkscape.org/namespaces/inkscape"
   height="1000"
   width="1000"
   id="svg13"
   viewBox="0 0 1000 1000"
   version="1.1"
   sodipodi:docname="citroner-background.svg"
   inkscape:version="1.0 (4035a4fb49, 2020-05-01)">
  <metadata
     id="metadata11">
    <rdf:RDF>
      <cc:Work
         rdf:about="">
        <dc:format>image/svg+xml</dc:format>
        <dc:type
           rdf:resource="http://purl.org/dc/dcmitype/StillImage" />
        <dc:title></dc:title>
      </cc:Work>
    </rdf:RDF>
  </metadata>
  <sodipodi:namedview
     inkscape:document-rotation="0"
     pagecolor="#ffffff"
     bordercolor="#666666"
     borderopacity="1"
     objecttolerance="10"
     gridtolerance="10"
     guidetolerance="10"
     inkscape:pageopacity="0"
     inkscape:pageshadow="2"
     inkscape:window-width="1464"
     inkscape:window-height="851"
     id="namedview9"
     showgrid="false"
     inkscape:zoom="0.55981979"
     inkscape:cx="606.68739"
     inkscape:cy="472.16971"
     inkscape:window-x="0"
     inkscape:window-y="27"
     inkscape:window-maximized="1"
     inkscape:current-layer="svg13" />
  <defs
     id="defs7">
    <radialGradient
       gradientUnits="userSpaceOnUse"
       gradientTransform="matrix(1.4542829,0,0,1.4654319,-115.08037,-120.09739)"
       r="227.83739"
       cy="258.03427"
       cx="253.3231"
       id="a">
      <stop
         id="stop2"
         offset="0"
         stop-color="#ffe67f" />
      <stop
         id="stop4"
         offset="1"
         stop-opacity="0"
         stop-color="#ffe67f" />
    </radialGradient>
  </defs>
  <rect
     style="fill:#fff2b3;fill-opacity:1;stroke-width:1.88287"
     id="rect34"
     width="1000"
     height="1000"
     x="0"
     y="0" />
  <g
     transform="matrix(2.0000011,0,0,2.0000011,5.3440735e-4,-7.6625244e-4)"
     id="g14">
    <path
       d="m 472.05266,121.80008 c 0,0 -10.80991,-39.308852 -72.72101,-23.584683 0,0 -99.25405,-78.616662 -252.55554,19.653903 0,0 -115.956467,60.92763 -93.357355,172.95645 0,0 -8.844205,17.68903 -6.879128,24.56816 0,0 -29.481379,24.56712 -18.67147,49.13633 0,0 -7.861667,14.74069 7.860933,10.80991 0,0 15.723124,10.80991 49.13633,6.87913 l 20.63634,8.8442 c 0,0 85.49579,107.11561 233.89035,26.53304 0,0 144.45645,-56.9979 121.85734,-218.16514 0,-7.3e-4 36.36051,-39.30885 10.80991,-77.63527 z M 173.30495,412.93105 c -3.79905,0 -6.87912,-1.48463 -6.87912,-3.31642 0,-1.83178 3.07944,-3.31715 6.87912,-3.31715 3.79979,0 6.87913,1.48527 6.87913,3.31715 0,1.83179 -3.07944,3.31642 -6.87913,3.31642 z m 12.28409,-21.86568 c -2.98508,0 -5.40464,-2.08969 -5.40464,-4.66777 0,-2.57807 2.41956,-4.66776 5.40464,-4.66776 2.98507,0 5.40464,2.08969 5.40464,4.66776 0,2.57808 -2.41957,4.66777 -5.40464,4.66777 z m 21.12807,28.4979 c -3.79905,0 -6.87912,-2.9699 -6.87912,-6.63347 0,-3.66357 3.07944,-6.63284 6.87912,-6.63284 3.79906,0 6.87913,2.96917 6.87913,6.63284 0,3.66357 -3.07944,6.63347 -6.87913,6.63347 z m 3.43957,-20.63634 c -1.89948,0 -3.43957,-1.7598 -3.43957,-3.93089 0,-2.17108 1.54009,-3.93088 3.43957,-3.93088 1.89947,0 3.43956,1.7598 3.43956,3.93088 0,2.17035 -1.54009,3.93089 -3.43956,3.93089 z m 13.75825,20.63634 c -2.98507,0 -5.40464,-1.48464 -5.40464,-3.31716 0,-1.83178 2.41957,-3.31568 5.40464,-3.31568 2.98507,0 5.40464,1.4839 5.40464,3.31568 0,1.83252 -2.41957,3.31716 -5.40464,3.31716 z m 22.03518,-50.11877 c -3.7572,0 -6.80275,-1.31964 -6.80275,-2.94834 0,-1.62871 3.04628,-2.94835 6.80275,-2.94835 3.75721,0 6.80275,1.31964 6.80275,2.94835 0,1.6287 -3.04554,2.94834 -6.80275,2.94834 z m 28.08359,29.48138 c -4.61294,0 -8.35299,-1.7598 -8.35299,-3.93088 0,-2.17109 3.73994,-3.93089 8.35299,-3.93089 4.61304,0 8.35298,1.7598 8.35298,3.93089 0,2.17035 -3.73994,3.93088 -8.35298,3.93088 z m 22.60225,10.80886 c -1.89948,0 -3.43957,-1.54008 -3.43957,-3.43883 0,-1.90021 1.54009,-3.43956 3.43957,-3.43956 1.89947,0 3.43956,1.54009 3.43956,3.43956 0,1.89948 -1.54009,3.43883 -3.43956,3.43883 z m 3.43956,-23.58468 c -3.79906,0 -6.87913,-1.98014 -6.87913,-4.42284 0,-2.44195 3.07945,-4.4221 6.87913,-4.4221 3.79906,0 6.87913,1.98015 6.87913,4.4221 0,2.4427 -3.08018,4.42284 -6.87913,4.42284 z m 16.70556,-27.51547 c -2.71347,0 -4.91343,-1.98014 -4.91343,-4.42283 0,-2.44196 2.19986,-4.4221 4.91343,-4.4221 2.71346,0 4.91342,1.98014 4.91342,4.4221 0,2.44259 -2.19985,4.42283 -4.91342,4.42283 z m 7.37045,44.22207 c -1.3571,0 -2.45703,-1.7598 -2.45703,-3.93088 0,-2.17109 1.09993,-3.93089 2.45703,-3.93089 1.35709,0 2.45702,1.7598 2.45702,3.93089 0,2.17108 -1.09993,3.93088 -2.45702,3.93088 z m 7.86166,-25.5506 c -2.98507,0 -5.40464,-0.88024 -5.40464,-1.96507 0,-1.08486 2.41957,-1.96581 5.40464,-1.96581 2.98507,0 5.40464,0.88026 5.40464,1.96581 0,1.08549 -2.41957,1.96507 -5.40464,1.96507 z"
       fill="#ffcd7f"
       stroke-width="0.720326"
       id="path9" />
    <path
       style="fill:url(#a)"
       d="m 472.05266,121.80008 c 0,0 -10.80991,-39.308852 -72.72101,-23.584683 0,0 -99.25405,-78.616662 -252.55554,19.653903 0,0 -115.956467,60.92763 -93.357355,172.95645 0,0 -8.844205,17.68903 -6.879128,24.56816 0,0 -29.481379,24.56712 -18.67147,49.13633 0,0 -7.861667,14.74069 7.860933,10.80991 0,0 15.723124,10.80991 49.13633,6.87913 l 20.63634,8.8442 c 0,0 85.49579,107.11561 233.89035,26.53304 0,0 144.45645,-56.9979 121.85734,-218.16514 0,-7.3e-4 36.36051,-39.30885 10.80991,-77.63527 z M 173.30495,412.93105 c -3.79905,0 -6.87912,-1.48463 -6.87912,-3.31642 0,-1.83178 3.07944,-3.31715 6.87912,-3.31715 3.79979,0 6.87913,1.48527 6.87913,3.31715 0,1.83179 -3.07944,3.31642 -6.87913,3.31642 z m 12.28409,-21.86568 c -2.98508,0 -5.40464,-2.08969 -5.40464,-4.66777 0,-2.57807 2.41956,-4.66776 5.40464,-4.66776 2.98507,0 5.40464,2.08969 5.40464,4.66776 0,2.57808 -2.41957,4.66777 -5.40464,4.66777 z m 21.12807,28.49894 c -3.79905,0 -6.87912,-2.9699 -6.87912,-6.63347 0,-3.66356 3.07944,-6.63283 6.87912,-6.63283 3.79906,0 6.87913,2.96916 6.87913,6.63283 0,3.66357 -3.07944,6.63347 -6.87913,6.63347 z m 3.43957,-20.63634 c -1.89948,0 -3.43957,-1.7598 -3.43957,-3.93088 0,-2.17109 1.54009,-3.93089 3.43957,-3.93089 1.89947,0 3.43956,1.7598 3.43956,3.93089 0,2.17035 -1.54009,3.93088 -3.43956,3.93088 z m 13.75825,20.63634 c -2.98507,0 -5.40464,-1.48463 -5.40464,-3.31715 0,-1.83178 2.41957,-3.31569 5.40464,-3.31569 2.98507,0 5.40464,1.48391 5.40464,3.31569 0,1.83252 -2.41957,3.31715 -5.40464,3.31715 z m 22.03518,-50.11876 c -3.7572,0 -6.80275,-1.31964 -6.80275,-2.94835 0,-1.6287 3.04628,-2.94835 6.80275,-2.94835 3.75721,0 6.80275,1.31965 6.80275,2.94835 0,1.6286 -3.04554,2.94835 -6.80275,2.94835 z m 28.08359,29.48138 c -4.61294,0 -8.35299,-1.7598 -8.35299,-3.93089 0,-2.17108 3.73994,-3.93088 8.35299,-3.93088 4.61304,0 8.35298,1.7598 8.35298,3.93088 0,2.17035 -3.73994,3.93089 -8.35298,3.93089 z m 22.60225,10.80886 c -1.89948,0 -3.43957,-1.54009 -3.43957,-3.43883 0,-1.90021 1.54009,-3.43956 3.43957,-3.43956 1.89947,0 3.43956,1.54008 3.43956,3.43956 0,1.89948 -1.54009,3.43883 -3.43956,3.43883 z m 3.43956,-23.58468 c -3.79906,0 -6.87913,-1.98015 -6.87913,-4.42284 0,-2.44196 3.07945,-4.4221 6.87913,-4.4221 3.79906,0 6.87913,1.98014 6.87913,4.4221 0,2.44269 -3.08018,4.42284 -6.87913,4.42284 z m 16.70556,-27.51547 c -2.71347,0 -4.91343,-1.98014 -4.91343,-4.42283 0,-2.44196 2.19986,-4.42211 4.91343,-4.42211 2.71346,0 4.91342,1.98015 4.91342,4.42211 0,2.44258 -2.19985,4.42283 -4.91342,4.42283 z m 7.37045,44.22207 c -1.3571,0 -2.45703,-1.7598 -2.45703,-3.93089 0,-2.17108 1.09993,-3.93088 2.45703,-3.93088 1.35709,0 2.45702,1.7598 2.45702,3.93088 0,2.17109 -1.09993,3.93089 -2.45702,3.93089 z m 7.86166,-25.5506 c -2.98507,0 -5.40464,-0.88025 -5.40464,-1.96508 0,-1.08486 2.41957,-1.9658 5.40464,-1.9658 2.98507,0 5.40464,0.88025 5.40464,1.9658 0,1.08549 -2.41957,1.96508 -5.40464,1.96508 z"
       fill="url(#a)"
       stroke-width="0.720326"
       id="path11" />
  </g>
</svg>
