<svg version="1.1" viewBox="0 0 500 500" xmlns="http://www.w3.org/2000/svg" xmlns:xlink="http://www.w3.org/1999/xlink"><title>Citroner Bloggen</title><defs><radialGradient id="a" cx="253.3231" cy="258.03427" r="227.83739" gradientTransform="matrix(1.4542829,0,0,1.4654319,-115.08037,-120.09739)" gradientUnits="userSpaceOnUse"><stop stop-color="#ffe67f" offset="0"/><stop stop-color="#ffe67f" stop-opacity="0" offset="1"/></radialGradient></defs><path d="m472.05266 121.80008s-10.80991-39.308852-72.72101-23.584683c0 0-99.25405-78.616662-252.55554 19.653903 0 0-115.956467 60.92763-93.357355 172.95645 0 0-8.844205 17.68903-6.879128 24.56816 0 0-29.481379 24.56712-18.67147 49.13633 0 0-7.861667 14.74069 7.860933 10.80991 0 0 15.723124 10.80991 49.13633 6.87913l20.63634 8.8442s85.49579 107.11561 233.89035 26.53304c0 0 144.45645-56.9979 121.85734-218.16514 0-7.3e-4 36.36051-39.30885 10.80991-77.63527zm-298.74771 291.13097c-3.79905 0-6.87912-1.48463-6.87912-3.31642 0-1.83178 3.07944-3.31715 6.87912-3.31715 3.79979 0 6.87913 1.48527 6.87913 3.31715 0 1.83179-3.07944 3.31642-6.87913 3.31642zm12.28409-21.86568c-2.98508 0-5.40464-2.08969-5.40464-4.66777 0-2.57807 2.41956-4.66776 5.40464-4.66776 2.98507 0 5.40464 2.08969 5.40464 4.66776 0 2.57808-2.41957 4.66777-5.40464 4.66777zm21.12807 28.4979c-3.79905 0-6.87912-2.9699-6.87912-6.63347s3.07944-6.63284 6.87912-6.63284c3.79906 0 6.87913 2.96917 6.87913 6.63284 0 3.66357-3.07944 6.63347-6.87913 6.63347zm3.43957-20.63634c-1.89948 0-3.43957-1.7598-3.43957-3.93089 0-2.17108 1.54009-3.93088 3.43957-3.93088 1.89947 0 3.43956 1.7598 3.43956 3.93088 0 2.17035-1.54009 3.93089-3.43956 3.93089zm13.75825 20.63634c-2.98507 0-5.40464-1.48464-5.40464-3.31716 0-1.83178 2.41957-3.31568 5.40464-3.31568s5.40464 1.4839 5.40464 3.31568c0 1.83252-2.41957 3.31716-5.40464 3.31716zm22.03518-50.11877c-3.7572 0-6.80275-1.31964-6.80275-2.94834 0-1.62871 3.04628-2.94835 6.80275-2.94835 3.75721 0 6.80275 1.31964 6.80275 2.94835 0 1.6287-3.04554 2.94834-6.80275 2.94834zm28.08359 29.48138c-4.61294 0-8.35299-1.7598-8.35299-3.93088 0-2.17109 3.73994-3.93089 8.35299-3.93089 4.61304 0 8.35298 1.7598 8.35298 3.93089 0 2.17035-3.73994 3.93088-8.35298 3.93088zm22.60225 10.80886c-1.89948 0-3.43957-1.54008-3.43957-3.43883 0-1.90021 1.54009-3.43956 3.43957-3.43956 1.89947 0 3.43956 1.54009 3.43956 3.43956 0 1.89948-1.54009 3.43883-3.43956 3.43883zm3.43956-23.58468c-3.79906 0-6.87913-1.98014-6.87913-4.42284 0-2.44195 3.07945-4.4221 6.87913-4.4221 3.79906 0 6.87913 1.98015 6.87913 4.4221 0 2.4427-3.08018 4.42284-6.87913 4.42284zm16.70556-27.51547c-2.71347 0-4.91343-1.98014-4.91343-4.42283 0-2.44196 2.19986-4.4221 4.91343-4.4221 2.71346 0 4.91342 1.98014 4.91342 4.4221 0 2.44259-2.19985 4.42283-4.91342 4.42283zm7.37045 44.22207c-1.3571 0-2.45703-1.7598-2.45703-3.93088 0-2.17109 1.09993-3.93089 2.45703-3.93089 1.35709 0 2.45702 1.7598 2.45702 3.93089 0 2.17108-1.09993 3.93088-2.45702 3.93088zm7.86166-25.5506c-2.98507 0-5.40464-0.88024-5.40464-1.96507 0-1.08486 2.41957-1.96581 5.40464-1.96581s5.40464 0.88026 5.40464 1.96581c0 1.08549-2.41957 1.96507-5.40464 1.96507z" fill="#ffcd7f" stroke-width=".72032583"/><path d="m472.05266 121.80008s-10.80991-39.308852-72.72101-23.584683c0 0-99.25405-78.616662-252.55554 19.653903 0 0-115.956467 60.92763-93.357355 172.95645 0 0-8.844205 17.68903-6.879128 24.56816 0 0-29.481379 24.56712-18.67147 49.13633 0 0-7.861667 14.74069 7.860933 10.80991 0 0 15.723124 10.80991 49.13633 6.87913l20.63634 8.8442s85.49579 107.11561 233.89035 26.53304c0 0 144.45645-56.9979 121.85734-218.16514 0-7.3e-4 36.36051-39.30885 10.80991-77.63527zm-298.74771 291.13097c-3.79905 0-6.87912-1.48463-6.87912-3.31642 0-1.83178 3.07944-3.31715 6.87912-3.31715 3.79979 0 6.87913 1.48527 6.87913 3.31715 0 1.83179-3.07944 3.31642-6.87913 3.31642zm12.28409-21.86568c-2.98508 0-5.40464-2.08969-5.40464-4.66777 0-2.57807 2.41956-4.66776 5.40464-4.66776 2.98507 0 5.40464 2.08969 5.40464 4.66776 0 2.57808-2.41957 4.66777-5.40464 4.66777zm21.12807 28.49894c-3.79905 0-6.87912-2.9699-6.87912-6.63347 0-3.66356 3.07944-6.63283 6.87912-6.63283 3.79906 0 6.87913 2.96916 6.87913 6.63283 0 3.66357-3.07944 6.63347-6.87913 6.63347zm3.43957-20.63634c-1.89948 0-3.43957-1.7598-3.43957-3.93088 0-2.17109 1.54009-3.93089 3.43957-3.93089 1.89947 0 3.43956 1.7598 3.43956 3.93089 0 2.17035-1.54009 3.93088-3.43956 3.93088zm13.75825 20.63634c-2.98507 0-5.40464-1.48463-5.40464-3.31715 0-1.83178 2.41957-3.31569 5.40464-3.31569s5.40464 1.48391 5.40464 3.31569c0 1.83252-2.41957 3.31715-5.40464 3.31715zm22.03518-50.11876c-3.7572 0-6.80275-1.31964-6.80275-2.94835 0-1.6287 3.04628-2.94835 6.80275-2.94835 3.75721 0 6.80275 1.31965 6.80275 2.94835 0 1.6286-3.04554 2.94835-6.80275 2.94835zm28.08359 29.48138c-4.61294 0-8.35299-1.7598-8.35299-3.93089 0-2.17108 3.73994-3.93088 8.35299-3.93088 4.61304 0 8.35298 1.7598 8.35298 3.93088 0 2.17035-3.73994 3.93089-8.35298 3.93089zm22.60225 10.80886c-1.89948 0-3.43957-1.54009-3.43957-3.43883 0-1.90021 1.54009-3.43956 3.43957-3.43956 1.89947 0 3.43956 1.54008 3.43956 3.43956s-1.54009 3.43883-3.43956 3.43883zm3.43956-23.58468c-3.79906 0-6.87913-1.98015-6.87913-4.42284 0-2.44196 3.07945-4.4221 6.87913-4.4221 3.79906 0 6.87913 1.98014 6.87913 4.4221 0 2.44269-3.08018 4.42284-6.87913 4.42284zm16.70556-27.51547c-2.71347 0-4.91343-1.98014-4.91343-4.42283 0-2.44196 2.19986-4.42211 4.91343-4.42211 2.71346 0 4.91342 1.98015 4.91342 4.42211 0 2.44258-2.19985 4.42283-4.91342 4.42283zm7.37045 44.22207c-1.3571 0-2.45703-1.7598-2.45703-3.93089 0-2.17108 1.09993-3.93088 2.45703-3.93088 1.35709 0 2.45702 1.7598 2.45702 3.93088 0 2.17109-1.09993 3.93089-2.45702 3.93089zm7.86166-25.5506c-2.98507 0-5.40464-0.88025-5.40464-1.96508 0-1.08486 2.41957-1.9658 5.40464-1.9658s5.40464 0.88025 5.40464 1.9658c0 1.08549-2.41957 1.96508-5.40464 1.96508z" fill="url(#a)" stroke-width=".72032583"/></svg>
